<svg version="1.2" xmlns="http://www.w3.org/2000/svg" viewBox="0 0 1874 2322" width="1874" height="2322"><style>.a{fill:#fdf3e2}.b{fill:#f19e38}.c{fill:#f6c552}.d{fill:#fff}</style><path class="a" d="m0 234h1874v1166h-1874z"/><path class="b" d="m2071.7 647.9c0 166.6-179.6 301.6-401.1 301.6-221.5 0-401.1-135-401.1-301.6 0-166.5 179.6-301.5 401.1-301.5 221.5 0 401.1 135 401.1 301.5z"/><path class="b" d="m333.3 407c0 17.9-14.6 32.5-32.5 32.5-18 0-32.5-14.6-32.5-32.5 0-18 14.5-32.5 32.5-32.5 17.9 0 32.5 14.5 32.5 32.5z"/><path class="b" d="m580.1 623.7c0 24.8-20.1 45-45 45-24.8 0-45-20.2-45-45 0-24.9 20.2-45 45-45 24.9 0 45 20.1 45 45z"/><path class="b" d="m601.6 501.8c0.1-0.6 0.8-0.6 0.9 0l0.5 4.8c0.7 6.3 5.2 11.2 10.9 12l4.5 0.5c0.5 0.1 0.5 0.9 0 1l-4.5 0.6c-5.7 0.7-10.2 5.6-10.9 11.9l-0.5 4.8c-0.1 0.6-0.8 0.6-0.9 0l-0.5-4.8c-0.7-6.3-5.2-11.2-10.9-11.9l-4.5-0.6c-0.5-0.1-0.5-0.9 0-1l4.5-0.5c5.7-0.8 10.2-5.7 10.9-12z"/><path class="a" d="m284 0c-148.2 0-209.3 37-284 85.8l0.6 170.9h1873.4v-234c-22.1 28.4-91.5 70.8-184.5 82.2-116.3 14.3-229.5-102.2-464-102.2-237.8 0-287.8 56.7-453.5 102.2-165.7 45.5-306.7-104.9-488-104.9z"/><path class="c" d="m169 1300h1458v164h-1458z"/><path class="c" d="m269.2 741c-145-79.1-203.5-146.7-269.2-162.4v812.6h1874v-782.6c-58.5 90.1-207.6 137.8-235.4 141.9-68.9 10.3-160.6 23.2-425.3-120-264.6-143.3-429.1-12.5-568.3 110.5-79.7 70.4-245.1 71.3-375.8 0z"/><path class="a" d="m352.3 1386.2c0 136.4-110.7 247.1-247.2 247.1-136.4 0-247.1-110.7-247.1-247.1 0-136.5 110.7-247.2 247.1-247.2 136.5 0 247.2 110.7 247.2 247.2z"/><path class="a" d="m218.5 925.5c0 3.4 2.7 6.1 6.1 6.1 3.4 0 6.1-2.7 6.1-6.1 0-3.4-2.7-6.1-6.1-6.1-3.4 0-6.1 2.7-6.1 6.1z"/><path class="a" d="m194.2 757.4c0 10 8.2 18.2 18.3 18.2 10 0 18.2-8.2 18.2-18.2 0-10.1-8.2-18.3-18.2-18.3-10.1 0-18.3 8.2-18.3 18.3z"/><path class="a" d="m845.3 841.5c0-0.7 0.8-0.7 0.9 0l0.6 5.1c0.7 6.5 5.5 11.7 11.5 12.5l4.7 0.6c0.6 0.1 0.6 1 0 1.1l-4.7 0.6c-6 0.7-10.8 5.9-11.5 12.5l-0.6 5.1c-0.1 0.6-0.9 0.6-0.9 0l-0.6-5.1c-0.7-6.6-5.5-11.8-11.6-12.5l-4.7-0.6c-0.5-0.1-0.5-1 0-1.1l4.7-0.6c6.1-0.8 10.9-6 11.6-12.5z"/><path class="a" d="m562.3 1282.5c0-0.7 0.8-0.7 0.9 0l0.6 5.1c0.7 6.6 5.5 11.7 11.5 12.5l4.7 0.6c0.6 0.1 0.6 1 0 1.1l-4.7 0.6c-6 0.8-10.8 5.9-11.5 12.5l-0.6 5.1c-0.1 0.6-0.9 0.6-0.9 0l-0.6-5.1c-0.7-6.6-5.5-11.7-11.6-12.5l-4.7-0.6c-0.5-0.1-0.5-1 0-1.1l4.7-0.6c6.1-0.8 10.9-5.9 11.6-12.5z"/><path class="a" d="m1536 1260.2c0 10.1 8.2 18.3 18.2 18.3 10.1 0 18.3-8.2 18.3-18.3 0-10-8.2-18.2-18.3-18.2-10 0-18.2 8.2-18.2 18.2z"/><path class="a" d="m1302 1293c0 3.3 2.7 6 6 6 3.3 0 6-2.7 6-6 0-3.3-2.7-6-6-6-3.3 0-6 2.7-6 6z"/><path class="a" d="m510.5 1527.2c0-21.3 17.2-38.5 38.5-38.5h230.9c21.3 0 38.5 17.2 38.5 38.5 0 21.2-17.2 38.5-38.5 38.5h-230.9c-21.3 0-38.5-17.3-38.5-38.5z"/><path fill-rule="evenodd" class="b" d="m556.8 1540.3q-4 0-7.3-1.9-3.3-1.9-5.3-5.1-1.9-3.4-1.9-7.5 0-4.2 1.9-7.5 2-3.3 5.3-5.1 3.3-1.9 7.3-1.9 4 0 7.3 1.9 3.3 1.8 5.2 5.1 2 3.3 2 7.5 0 4.1-2 7.5-1.9 3.2-5.2 5.1-3.3 1.9-7.3 1.9zm0-5.1q2.6 0 4.5-1.1 1.9-1.2 3-3.3 1.1-2.2 1.1-5 0-2.9-1.1-5-1.1-2.1-3-3.3-1.9-1.1-4.5-1.1-2.5 0-4.5 1.1-2 1.2-3.1 3.3-1.1 2.1-1.1 5 0 2.8 1.1 5 1.1 2.1 3.1 3.3 2 1.1 4.5 1.1z"/><path class="b" d="m596.7 1517.5v22.5h-5.7v-2.8q-1.1 1.4-2.9 2.3-1.8 0.8-3.8 0.8-2.6 0-4.7-1.1-2-1.2-3.2-3.3-1.1-2.2-1.1-5.2v-13.2h5.7v12.4q0 2.7 1.3 4.1 1.3 1.4 3.6 1.5 2.4-0.1 3.7-1.5 1.4-1.4 1.4-4.1v-12.4z"/><path class="b" d="m608 1521q1-1.8 2.8-2.8 1.8-1 4-1v6h-1.5q-2.6 0-4 1.2-1.3 1.3-1.3 4.4v11.2h-5.7v-22.5h5.7z"/><path class="b" d="m656.2 1517.2q4.1 0 6.6 2.6 2.6 2.5 2.6 7v13.2h-5.7v-12.4q0-2.7-1.3-4-1.4-1.4-3.7-1.4-2.3 0-3.7 1.4-1.3 1.3-1.3 4v12.4h-5.7v-12.4q0-2.7-1.3-4-1.3-1.4-3.7-1.4-2.3 0-3.7 1.4-1.3 1.3-1.3 4v12.4h-5.7v-22.5h5.7v2.7q1.1-1.4 2.8-2.2 1.7-0.8 3.8-0.8 2.6 0 4.7 1.1 2.1 1.1 3.2 3.2 1.1-1.9 3.1-3.1 2.2-1.2 4.6-1.2z"/><path class="b" d="m673.6 1514.9q-1.5 0-2.5-1-0.9-0.9-0.9-2.4 0-1.4 0.9-2.3 1-1 2.5-1 1.5 0 2.5 1 1 0.9 1 2.3 0 1.5-1 2.4-1 1-2.5 1zm2.8 2.6v22.5h-5.6v-22.5z"/><path class="b" d="m690.6 1540.3q-2.7 0-4.9-0.9-2.2-1-3.5-2.7-1.3-1.7-1.4-3.8h5.7q0.2 1.3 1.3 2.1 1.1 0.9 2.8 0.9 1.6 0 2.5-0.7 0.9-0.6 0.9-1.6 0-1.1-1.1-1.6-1.1-0.6-3.5-1.2-2.5-0.7-4.2-1.3-1.5-0.7-2.7-2-1.1-1.3-1.1-3.6 0-1.9 1-3.4 1.1-1.5 3.1-2.4 2-0.9 4.7-0.9 4 0 6.4 2 2.4 2 2.7 5.4h-5.5q-0.1-1.3-1.1-2.1-1-0.8-2.6-0.8-1.6 0-2.4 0.5-0.8 0.6-0.8 1.6 0 1.2 1.1 1.8 1.1 0.5 3.5 1.1 2.5 0.6 4 1.3 1.6 0.6 2.7 2 1.2 1.4 1.3 3.6 0 1.9-1.1 3.5-1.1 1.5-3.1 2.4-2 0.9-4.7 0.8z"/><path class="b" d="m712.7 1540.3q-2.7 0-4.9-0.9-2.2-1-3.5-2.7-1.3-1.7-1.4-3.8h5.7q0.2 1.3 1.3 2.1 1.1 0.9 2.8 0.9 1.6 0 2.5-0.7 0.9-0.6 0.9-1.6 0-1.1-1.1-1.6-1.1-0.6-3.5-1.2-2.6-0.7-4.2-1.3-1.6-0.7-2.7-2-1.2-1.3-1.2-3.6 0-1.9 1.1-3.4 1.1-1.5 3.1-2.4 2-0.9 4.7-0.9 4 0 6.4 2 2.4 2 2.6 5.4h-5.4q-0.1-1.3-1.1-2.1-1-0.8-2.7-0.8-1.5 0-2.3 0.5-0.9 0.6-0.9 1.6 0 1.2 1.2 1.8 1.1 0.5 3.5 1.1 2.4 0.6 4 1.3 1.6 0.6 2.7 2 1.2 1.4 1.2 3.6 0 1.9-1.1 3.5-1 1.5-3 2.4-2 0.9-4.7 0.8z"/><path class="b" d="m729.1 1514.9q-1.5 0-2.5-1-1-0.9-1-2.4 0-1.4 1-2.3 1-1 2.5-1 1.5 0 2.4 1 1.1 0.9 1.1 2.3 0 1.5-1.1 2.4-0.9 1-2.4 1zm2.8 2.6v22.5h-5.7v-22.5z"/><path fill-rule="evenodd" class="b" d="m747.4 1540.3q-3.2 0.1-5.8-1.4-2.6-1.4-4.1-4.1-1.4-2.6-1.4-6 0-3.5 1.5-6.1 1.5-2.6 4.1-4.1 2.7-1.4 5.9-1.4 3.2 0 5.9 1.4 2.6 1.5 4.1 4.1 1.6 2.6 1.6 6.1 0 3.4-1.6 6-1.6 2.7-4.2 4.1-2.7 1.5-6 1.4zm0-4.9q1.6 0 2.9-0.7 1.4-0.8 2.2-2.3 0.8-1.5 0.8-3.6 0-3.2-1.7-4.9-1.6-1.8-4.1-1.8-2.4 0-4.1 1.8-1.6 1.7-1.6 4.9 0 3.2 1.6 4.9 1.6 1.7 4 1.7z"/><path class="b" d="m775.8 1517.2q4 0 6.4 2.6 2.5 2.5 2.5 7v13.2h-5.7v-12.4q0-2.7-1.3-4.1-1.3-1.5-3.7-1.5-2.3 0-3.7 1.5-1.3 1.4-1.3 4.1v12.4h-5.7v-22.5h5.7v2.8q1.1-1.4 2.9-2.2 1.7-0.9 3.9-0.9z"/><path class="d" d="m0 1563.4h1874v852.4h-1874z"/><path class="a" d="m592.7 2236.4c0 168.4-188 304.9-419.9 304.9-231.8 0-419.8-136.5-419.8-304.9 0-168.4 188-304.9 419.8-304.9 231.9 0 419.9 136.5 419.9 304.9z"/><path class="b" d="m1488.4 2156.1c142.2 70.9 160 117.4 385.6 102.6v-760.9h-1874v715.2c120.9-56.9 223-56.9 262-56.9 69.7 0 152.2 8.3 277 68.2 124.9 59.9 222.5 74.1 325.2 49.2 132.6-32.1 252.6-103.1 304.9-128.7 72.9-35.5 212.7-41.9 319.3 11.3z"/><path class="b" d="m206.1 1383c-89.1 58.7-162.5 29.9-206.1 0v236.7h1874v-236.7c0 0-152.2-99.6-351.1-31.3-145.6 50-245.2 61.2-436.4-22.1-191.1-83.2-291.9 83.3-428.5 83.3-136.5 0-253.5-160.7-451.9-29.9z"/><path class="a" d="m1598.3 2140c0 11.2-9.3 20.2-20.7 20.2-11.5 0-20.8-9-20.8-20.2 0-11.2 9.3-20.3 20.8-20.3 11.4 0 20.7 9.1 20.7 20.3z"/><path class="a" d="m841.7 1440.6c0 12.6-10.2 22.8-22.8 22.8-12.6 0-22.8-10.2-22.8-22.8 0-12.6 10.2-22.8 22.8-22.8 12.6 0 22.8 10.2 22.8 22.8z"/><path class="a" d="m1536.6 1662.9c0 5 4 9.1 9.1 9.1 5 0 9.1-4.1 9.1-9.1 0-5-4.1-9.1-9.1-9.1-5.1 0-9.1 4.1-9.1 9.1z"/><path class="a" d="m991.6 2081.2c0 5.1 4.1 9.2 9.1 9.2 5.1 0 9.2-4.1 9.2-9.2 0-5-4.1-9.1-9.2-9.1-5 0-9.1 4.1-9.1 9.1z"/><path class="a" d="m1687.5 1839.2c0 38.5-31.3 69.8-69.9 69.8-38.6 0-69.9-31.3-69.9-69.8 0-38.7 31.3-69.9 69.9-69.9 38.6 0 69.9 31.2 69.9 69.9z"/><path class="a" d="m1554.8 1449.7c0 17.3-14.1 31.4-31.4 31.4-17.4 0-31.4-14.1-31.4-31.4 0-17.4 14-31.4 31.4-31.4 17.3 0 31.4 14 31.4 31.4z"/><path class="a" d="m1426.2 1581.9c0 30.7-25 55.7-55.8 55.7-30.7 0-55.7-25-55.7-55.7 0-30.8 25-55.7 55.7-55.7 30.8 0 55.8 24.9 55.8 55.7z"/><path class="a" d="m995.9 1526.2c0-0.6 0.9-0.6 0.9 0l0.6 5.1c0.7 6.6 5.5 11.7 11.6 12.5l4.7 0.6c0.5 0.1 0.5 1 0 1.1l-4.7 0.6c-6.1 0.7-10.9 5.9-11.6 12.5l-0.6 5.1c0 0.6-0.9 0.6-0.9 0l-0.6-5.1c-0.7-6.6-5.5-11.8-11.6-12.5l-4.7-0.6c-0.5-0.1-0.5-1 0-1.1l4.7-0.6c6.1-0.8 10.9-5.9 11.6-12.5z"/><path class="a" d="m1452.4 1972.4c0.1-0.7 1.1-0.7 1.1 0l0.7 5.9c0.8 7.6 6.5 13.6 13.6 14.5l5.5 0.7c0.6 0.1 0.6 1.1 0 1.2l-5.5 0.7c-7.1 0.9-12.8 6.9-13.6 14.6l-0.7 5.9c0 0.7-1 0.7-1.1 0l-0.6-5.9c-0.9-7.7-6.5-13.7-13.6-14.6l-5.5-0.7c-0.6-0.1-0.6-1.1 0-1.2l5.5-0.7c7.1-0.9 12.7-6.9 13.6-14.5z"/><path class="b" d="m1433.2 2211.4c0 17.3-14 31.4-31.4 31.4-17.3 0-31.4-14.1-31.4-31.4 0-17.4 14.1-31.4 31.4-31.4 17.4 0 31.4 14 31.4 31.4z"/><path fill-rule="evenodd" class="a" d="m1156.2 1512c0-16.5 13.4-29.9 29.9-29.9 16.5 0 29.9 13.4 29.9 29.9 0 16.5-13.4 29.9-29.9 29.9-16.5 0-29.9-13.4-29.9-29.9zm29.9-26.9c-14.8 0-26.9 12.1-26.9 26.9 0 14.8 12.1 26.8 26.9 26.8 14.8 0 26.8-12 26.8-26.8 0-14.8-12-26.9-26.8-26.9zm-259.8 249.2c0-5 4.1-9.1 9.1-9.1 5 0 9.1 4.1 9.1 9.1 0 5-4.1 9.1-9.1 9.1-5 0-9.1-4.1-9.1-9.1zm9.1-6.1c-3.4 0-6.1 2.8-6.1 6.1 0 3.4 2.7 6.1 6.1 6.1 3.4 0 6.1-2.7 6.1-6.1 0-3.3-2.7-6.1-6.1-6.1zm-52.2 149.9c0-17.9 14.6-32.4 32.5-32.4 17.9 0 32.4 14.5 32.4 32.4 0 17.9-14.5 32.5-32.4 32.5-17.9 0-32.5-14.6-32.5-32.5zm32.5-29.3c-16.3 0-29.4 13.1-29.4 29.3 0 16.3 13.1 29.4 29.4 29.4 16.2 0 29.3-13.1 29.3-29.4 0-16.2-13.1-29.3-29.3-29.3zm-373.3 289.7c0-10.1 8.2-18.3 18.2-18.3 10.1 0 18.3 8.2 18.3 18.3 0 10-8.2 18.2-18.3 18.2-10 0-18.2-8.2-18.2-18.2zm18.2-15.2c-8.4 0-15.2 6.8-15.2 15.2 0 8.3 6.8 15.2 15.2 15.2 8.4 0 15.2-6.9 15.2-15.2 0-8.4-6.8-15.2-15.2-15.2z"/></svg>