<svg version="1.2" xmlns="http://www.w3.org/2000/svg" viewBox="0 0 2500 3400" width="2500" height="3400">
	<title>Group 48095824-svg</title>
	<style>
		.s0 { fill: #fdf3e2 } 
		.s1 { fill: #f19e38 } 
		.s2 { fill: #f6c552 } 
		.s3 { fill: #ffffff } 
		.s4 { fill: none;stroke: #fdf3e2;stroke-width: 4.4 } 
	</style>
	<path id="Layer" class="s0" d="m0 305h2500v1836h-2500z"/>
	<path id="Layer" class="s1" d="m2145.5 1700.2c-294.2 0-532-211-532-472 0-261 237.8-472 532-472 294.2 0 532 211 532 472 0 261-237.8 472-532 472z"/>
	<path id="Layer" class="s1" d="m413.4 688.7c-23.9 0-43.1-22.7-43.1-50.9 0-28.1 19.2-50.8 43.1-50.8 23.8 0 43.1 22.7 43.1 50.8 0 28.2-19.3 50.9-43.1 50.9z"/>
	<path id="Layer" class="s1" d="m724.1 1047.5c-33 0-59.6-31.5-59.6-70.4 0-39 26.6-70.5 59.6-70.5 33 0 59.7 31.5 59.7 70.5 0 38.9-26.7 70.4-59.7 70.4z"/>
	<path id="Layer" class="s1" d="m812.3 786.3c0.1-0.9 1.1-0.9 1.2 0l0.7 7.6c0.9 9.7 6.9 17.4 14.5 18.6l5.8 0.9c0.7 0.1 0.7 1.4 0 1.5l-5.8 0.9c-7.6 1.2-13.6 8.9-14.5 18.7l-0.7 7.5c-0.1 0.9-1.1 0.9-1.2 0l-0.7-7.5c-0.9-9.8-6.9-17.5-14.5-18.7l-5.8-0.9c-0.7-0.1-0.7-1.4 0-1.5l5.8-0.9c7.6-1.2 13.6-8.9 14.5-18.6z"/>
	<path id="Layer" class="s0" d="m378.8 0c-197.6 0-279.1 58.3-378.8 135.1l0.9 269h2499.1v-368.3c-29.5 44.7-122 111.4-246.2 129.4-155.1 22.5-306.1-161-618.9-161-317.3 0-384 89.4-605.1 161-221 71.6-409.1-165.2-651-165.2z"/>
	<path id="Layer" class="s2" d="m224.1 1934.8h1933.7v256.7h-1933.7z"/>
	<path id="Layer" class="s2" d="m359.1 1235.1c-193.4-124.5-271.5-230.9-359.1-255.6v1279.4h2500v-1232.2c-78.1 141.8-276.9 217-314 223.5-92 16.1-214.3 36.5-567.3-189.1-353.1-225.6-572.6-19.6-758.2 174-106.3 111-327 112.3-501.4 0z"/>
	<path id="Layer" class="s0" d="m168.8 2581.8c-181.3 0-327.8-172.9-327.8-386.9 0-213.9 146.5-386.8 327.8-386.8 181.2 0 327.8 172.9 327.8 386.8 0 214-146.6 386.9-327.8 386.9z"/>
	<path id="Layer" class="s0" d="m297.9 1358.1c-4.5 0-8.1-4.3-8.1-9.5 0-5.3 3.6-9.5 8.1-9.5 4.4 0 8 4.2 8 9.5 0 5.2-3.6 9.5-8 9.5z"/>
	<path id="Layer" class="s0" d="m281.8 1113.9c-13.4 0-24.2-12.8-24.2-28.5 0-15.8 10.8-28.6 24.2-28.6 13.3 0 24.1 12.8 24.1 28.6 0 15.7-10.8 28.5-24.1 28.5z"/>
	<path id="Layer" class="s0" d="m1121 1217c0.1-0.9 1.2-0.9 1.3 0l0.7 8c1 10.3 7.3 18.4 15.4 19.7l6.2 0.9c0.7 0.1 0.7 1.5 0 1.6l-6.2 1c-8.1 1.2-14.4 9.3-15.4 19.6l-0.7 8c-0.1 1-1.2 1-1.3 0l-0.7-8c-1-10.3-7.3-18.4-15.4-19.6l-6.2-1c-0.7-0.1-0.7-1.5 0-1.6l6.2-0.9c8.1-1.3 14.4-9.4 15.4-19.7z"/>
	<path id="Layer" class="s0" d="m745.7 1907.3c0.1-0.9 1.2-0.9 1.2 0l0.8 8c0.9 10.3 7.3 18.5 15.3 19.7l6.3 0.9c0.7 0.2 0.7 1.6 0 1.7l-6.3 0.9c-8 1.2-14.4 9.4-15.3 19.7l-0.8 8c0 0.9-1.1 0.9-1.2 0l-0.7-8c-1-10.3-7.3-18.5-15.4-19.7l-6.2-0.9c-0.8-0.1-0.8-1.5 0-1.7l6.2-0.9c8.1-1.2 14.4-9.4 15.4-19.7z"/>
	<path id="Layer" class="s0" d="m2061.3 1901.1c-13.4 0-24.2-12.8-24.2-28.5 0-15.8 10.8-28.6 24.2-28.6 13.4 0 24.2 12.8 24.2 28.6 0 15.7-10.8 28.5-24.2 28.5z"/>
	<path id="Layer" class="s0" d="m1734.7 1933.2c-4.4 0-7.9-4.2-7.9-9.4 0-5.1 3.5-9.3 7.9-9.3 4.4 0 8 4.2 8 9.3 0 5.2-3.6 9.4-8 9.4z"/>
	<path id="Layer" class="s3" d="m0 2179.2h2500v1342.1h-2500z"/>
	<path id="Layer" class="s0" d="m341.8 3390.9c-307.9 0-556.8-213.4-556.8-477.3 0-263.9 248.9-477.2 556.8-477.2 307.9 0 556.8 213.3 556.8 477.2 0 263.9-248.9 477.3-556.8 477.3z"/>
	<path id="Layer" class="s1" d="m1985.6 3148.8c189.7 111.6 213.4 184.9 514.4 161.5v-1198.1h-2500.2v1126.2c161.4-89.6 297.6-89.6 349.6-89.6 92.9 0 203 13 369.6 107.4 166.6 94.3 296.8 116.6 433.7 77.5 177-50.5 337-162.4 406.9-202.7 97.2-56 283.7-65.9 426 17.8z"/>
	<path id="Layer" class="s1" d="m275 2003.3c-118.9 92.5-216.9 47.1-275 0v372.8h2500v-372.8c0 0-203-156.7-468.4-49.2-194.2 78.7-327.1 96.3-582.1-34.8-255-131.1-389.5 131.1-571.6 131.1-182.2 0-338.3-253-602.9-47.1z"/>
	<path id="Layer" class="s0" d="m2092.3 3146.8c-15.2 0-27.6-14.2-27.6-31.7 0-17.6 12.4-31.7 27.6-31.7 15.2 0 27.5 14.1 27.5 31.7 0 17.5-12.3 31.7-27.5 31.7z"/>
	<path id="Layer" class="s0" d="m1086.1 2055.9c-16.7 0-30.2-15.9-30.2-35.7 0-19.7 13.5-35.6 30.2-35.6 16.7 0 30.2 15.9 30.2 35.6 0 19.8-13.5 35.7-30.2 35.7z"/>
	<path id="Layer" class="s0" d="m2050 2382.5c-6.7 0-12.1-6.3-12.1-14.2 0-7.9 5.4-14.3 12.1-14.3 6.7 0 12.1 6.4 12.1 14.3 0 7.9-5.4 14.2-12.1 14.2z"/>
	<path id="Layer" class="s0" d="m1327.2 3037.4c-6.6 0-12.1-6.4-12.1-14.3 0-7.9 5.5-14.3 12.1-14.3 6.7 0 12.1 6.4 12.1 14.3 0 7.9-5.4 14.3-12.1 14.3z"/>
	<path id="Layer" class="s0" d="m2145.3 2753.6c-51.2 0-92.6-48.9-92.6-109.4 0-60.5 41.4-109.4 92.6-109.4 51.3 0 92.7 48.9 92.7 109.4 0 60.5-41.4 109.4-92.7 109.4z"/>
	<path id="Layer" class="s0" d="m2020.4 2083.7c-23 0-41.6-22-41.6-49.2 0-27.2 18.6-49.1 41.6-49.1 23 0 41.7 21.9 41.7 49.1 0 27.2-18.7 49.2-41.7 49.2z"/>
	<path id="Layer" class="s0" d="m1817.6 2328.6c-40.9 0-73.9-39-73.9-87.2 0-48.2 33-87.2 73.9-87.2 40.8 0 73.8 39 73.8 87.2 0 48.2-33 87.2-73.8 87.2z"/>
	<path id="Layer" class="s0" d="m1320.8 2154.2c0.1-0.9 1.2-0.9 1.2 0l0.8 8c0.9 10.3 7.3 18.4 15.3 19.7l6.3 0.9c0.7 0.1 0.7 1.5 0 1.6l-6.3 1c-8 1.2-14.4 9.3-15.3 19.7l-0.8 7.9c0 1-1.1 1-1.2 0l-0.7-7.9c-1-10.4-7.3-18.5-15.4-19.7l-6.2-1c-0.8-0.1-0.8-1.5 0-1.6l6.2-0.9c8.1-1.3 14.4-9.4 15.4-19.7z"/>
	<path id="Layer" class="s0" d="m1926.3 2852.7c0.1-1.1 1.4-1.1 1.5 0l0.8 9.2c1.2 12 8.6 21.4 18 22.8l7.3 1.1c0.9 0.1 0.9 1.7 0 1.9l-7.3 1.1c-9.4 1.4-16.8 10.8-18 22.8l-0.8 9.2c-0.1 1.1-1.4 1.1-1.5 0l-0.8-9.2c-1.2-12-8.6-21.4-18-22.8l-7.3-1.1c-0.9-0.2-0.9-1.8 0-1.9l7.3-1.1c9.4-1.4 16.8-10.8 18-22.8z"/>
	<path id="Layer" class="s1" d="m1859.2 3276c-23 0-41.6-22-41.6-49.1 0-27.2 18.6-49.2 41.6-49.2 23 0 41.6 22 41.6 49.2 0 27.1-18.6 49.1-41.6 49.1z"/>
	<path id="Layer" fill-rule="evenodd" class="s4" d="m1214.4 2753.6c-22.7 0-41-21.7-41-48.4 0-26.7 18.3-48.4 41-48.4 22.7 0 41 21.7 41 48.4 0 26.7-18.3 48.4-41 48.4z"/>
	<path id="Layer" fill-rule="evenodd" class="s4" d="m1240.6 2491.9c-5.6 0-10.1-5.3-10.1-11.8 0-6.6 4.5-11.9 10.1-11.9 5.6 0 10.1 5.3 10.1 11.9 0 6.5-4.5 11.8-10.1 11.8z"/>
	<path id="Layer" fill-rule="evenodd" class="s4" d="m1573.1 2176.4c-20.8 0-37.6-19.8-37.6-44.4 0-24.5 16.8-44.4 37.6-44.4 20.8 0 37.6 19.9 37.6 44.4 0 24.6-16.8 44.4-37.6 44.4z"/>
	<path id="Layer" fill-rule="evenodd" class="s4" d="m743.5 3138.8c-12.2 0-22.1-11.6-22.1-26.1 0-14.5 9.9-26.2 22.1-26.2 12.3 0 22.2 11.7 22.2 26.2 0 14.5-9.9 26.1-22.2 26.1z"/>
</svg>