<svg version="1.2" xmlns="http://www.w3.org/2000/svg" viewBox="0 0 1885 2171" width="1885" height="2171"><style>.a{fill:#fdf3e2}.b{fill:#f19e38}.c{fill:#f6c552}.d{fill:#fff}.e{fill:none;stroke:#fdf3e2;stroke-width:3}</style><path class="a" d="m0 249h1885v1172.9h-1885z"/><path class="b" d="m1641.1 1042c-221.8 0-401.1-134.8-401.1-301.5 0-166.8 179.3-301.6 401.1-301.6 221.8 0 401.1 134.8 401.1 301.6 0 166.7-179.3 301.5-401.1 301.5z"/><path class="b" d="m344.2 407c0 17.9-14.6 32.5-32.5 32.5-18 0-32.5-14.6-32.5-32.5 0-18 14.5-32.5 32.5-32.5 17.9 0 32.5 14.5 32.5 32.5z"/><path class="b" d="m591 623.7c0 24.8-20.2 45-45 45-24.9 0-45-20.2-45-45 0-24.9 20.1-45 45-45 24.8 0 45 20.1 45 45z"/><path class="b" d="m612.5 501.8c0-0.6 0.8-0.6 0.9 0l0.5 4.8c0.7 6.3 5.2 11.2 10.9 12l4.4 0.5c0.6 0.1 0.6 0.9 0 1l-4.4 0.6c-5.7 0.7-10.2 5.6-10.9 11.9l-0.5 4.8c-0.1 0.6-0.9 0.6-0.9 0l-0.6-4.8c-0.6-6.3-5.1-11.2-10.9-11.9l-4.4-0.6c-0.5-0.1-0.5-0.9 0-1l4.4-0.5c5.8-0.8 10.3-5.7 10.9-12z"/><path class="a" d="m285.6 0c-149 0-210.4 37.3-285.6 86.3l0.7 171.9h1884.3v-235.3c-22.2 28.5-92 71.1-185.6 82.6-117 14.4-230.8-102.8-466.7-102.8-239.2 0-289.5 57.1-456.2 102.8-166.7 45.8-308.5-105.5-490.9-105.5z"/><path class="c" d="m2101 1003h1458v164h-1458z"/><path class="c" d="m270.8 761c-145.9-76.1-204.7-141.1-270.8-156.1v781.1h1885v-752.3c-58.9 86.6-208.8 132.5-236.8 136.4-69.3 9.9-161.5 22.3-427.7-115.4-266.2-137.7-431.7-12-571.7 106.3-80.2 67.7-246.6 68.5-378 0z"/><path class="a" d="m373.3 1394.7c0 136.4-110.7 247.1-247.2 247.1-136.4 0-247.1-110.7-247.1-247.1 0-136.5 110.7-247.2 247.1-247.2 136.5 0 247.2 110.7 247.2 247.2z"/><path class="a" d="m218.5 861c0 3.4 2.7 6.1 6.1 6.1 3.4 0 6.1-2.7 6.1-6.1 0-3.4-2.7-6.1-6.1-6.1-3.4 0-6.1 2.7-6.1 6.1z"/><path class="a" d="m194.2 692.9c0 10 8.2 18.2 18.3 18.2 10 0 18.2-8.2 18.2-18.2 0-10.1-8.2-18.3-18.2-18.3-10.1 0-18.3 8.2-18.3 18.3z"/><path class="a" d="m845.3 777c0-0.6 0.8-0.6 0.9 0l0.6 5.1c0.7 6.6 5.5 11.7 11.5 12.5l4.7 0.6c0.6 0.1 0.6 1 0 1.1l-4.7 0.6c-6 0.7-10.8 5.9-11.5 12.5l-0.6 5.1c-0.1 0.6-0.9 0.6-0.9 0l-0.6-5.1c-0.7-6.6-5.5-11.8-11.6-12.5l-4.7-0.6c-0.5-0.1-0.5-1 0-1.1l4.7-0.6c6.1-0.8 10.9-5.9 11.6-12.5z"/><path class="a" d="m562.3 1218c0-0.7 0.8-0.7 0.9 0l0.6 5.1c0.7 6.6 5.5 11.7 11.5 12.5l4.7 0.6c0.6 0.1 0.6 1 0 1.1l-4.7 0.6c-6 0.8-10.8 5.9-11.5 12.5l-0.6 5.1c-0.1 0.7-0.9 0.7-0.9 0l-0.6-5.1c-0.7-6.6-5.5-11.7-11.6-12.5l-4.7-0.6c-0.5-0.1-0.5-1 0-1.1l4.7-0.6c6.1-0.8 10.9-5.9 11.6-12.5z"/><path class="a" d="m1536 1195.7c0 10.1 8.2 18.3 18.2 18.3 10.1 0 18.3-8.2 18.3-18.3 0-10-8.2-18.2-18.3-18.2-10 0-18.2 8.2-18.2 18.2z"/><path class="a" d="m1302 1228.5c0 3.3 2.7 6 6 6 3.3 0 6-2.7 6-6 0-3.3-2.7-6-6-6-3.3 0-6 2.7-6 6z"/><path class="d" d="m0 1469.1h1885v701.9h-1885z"/><path class="a" d="m289.5 2171c-224.2 0-405.5-131.6-405.5-294.5 0-162.8 181.3-294.5 405.5-294.5 224.3 0 405.6 131.7 405.6 294.5 0 162.9-181.3 294.5-405.6 294.5z"/><path class="b" d="m1497.1 2001.8c143.1 57.7 160.9 95.5 387.9 83.5v-619.3h-1885v582.1c121.7-46.3 224.3-46.3 263.6-46.3 70 0 153 6.7 278.6 55.5 125.6 48.7 223.8 60.3 327 40 133.5-26.1 254.1-83.9 306.8-104.7 73.3-28.9 213.9-34.1 321.1 9.2z"/><path class="b" d="m206.3 1310.7c-89.6 45.7-163.5 23.3-207.3 0v184.3h1885v-184.3c0 0-153.1-77.5-353.2-24.3-146.4 38.8-246.6 47.6-438.9-17.3-192.3-64.8-293.6 64.9-431 64.9-137.3 0-255.1-125.1-454.6-23.3z"/><path class="a" d="m1598.3 1989.5c0 11.2-9.3 20.2-20.7 20.2-11.5 0-20.8-9-20.8-20.2 0-11.2 9.3-20.3 20.8-20.3 11.4 0 20.7 9.1 20.7 20.3z"/><path class="a" d="m841.7 1290.1c0 12.6-10.2 22.8-22.8 22.8-12.6 0-22.8-10.2-22.8-22.8 0-12.6 10.2-22.8 22.8-22.8 12.6 0 22.8 10.2 22.8 22.8z"/><path class="a" d="m1536.6 1512.4c0 5 4 9.1 9.1 9.1 5 0 9.1-4.1 9.1-9.1 0-5-4.1-9.1-9.1-9.1-5.1 0-9.1 4.1-9.1 9.1z"/><path class="a" d="m991.6 1930.7c0 5.1 4.1 9.1 9.1 9.1 5.1 0 9.2-4 9.2-9.1 0-5-4.1-9.1-9.2-9.1-5 0-9.1 4.1-9.1 9.1z"/><path class="a" d="m1687.5 1688.7c0 38.5-31.3 69.8-69.9 69.8-38.6 0-69.9-31.3-69.9-69.8 0-38.7 31.3-69.9 69.9-69.9 38.6 0 69.9 31.2 69.9 69.9z"/><path class="a" d="m1554.8 1299.2c0 17.3-14.1 31.4-31.4 31.4-17.4 0-31.4-14.1-31.4-31.4 0-17.4 14-31.4 31.4-31.4 17.3 0 31.4 14 31.4 31.4z"/><path class="a" d="m1426.2 1431.4c0 30.7-25 55.7-55.8 55.7-30.7 0-55.7-25-55.7-55.7 0-30.8 25-55.7 55.7-55.7 30.8 0 55.8 24.9 55.8 55.7z"/><path class="a" d="m995.9 1375.7c0-0.6 0.9-0.6 0.9 0l0.6 5.1c0.7 6.6 5.5 11.8 11.6 12.5l4.7 0.6c0.5 0.1 0.5 1 0 1.1l-4.7 0.6c-6.1 0.8-10.9 5.9-11.6 12.5l-0.6 5.1c0 0.6-0.9 0.6-0.9 0l-0.6-5.1c-0.7-6.6-5.5-11.7-11.6-12.5l-4.7-0.6c-0.5-0.1-0.5-1 0-1.1l4.7-0.6c6.1-0.7 10.9-5.9 11.6-12.5z"/><path class="a" d="m1452.4 1821.9c0.1-0.7 1.1-0.7 1.1 0l0.7 5.9c0.8 7.6 6.5 13.6 13.6 14.5l5.5 0.7c0.6 0.1 0.6 1.1 0 1.2l-5.5 0.7c-7.1 0.9-12.8 6.9-13.6 14.6l-0.7 5.9c0 0.7-1 0.7-1.1 0l-0.6-5.9c-0.9-7.7-6.5-13.7-13.6-14.6l-5.5-0.7c-0.6-0.1-0.6-1.1 0-1.2l5.5-0.7c7.1-0.9 12.7-6.9 13.6-14.5z"/><path class="b" d="m1433.2 2060.9c0 17.3-14 31.4-31.4 31.4-17.3 0-31.4-14.1-31.4-31.4 0-17.4 14.1-31.4 31.4-31.4 17.4 0 31.4 14 31.4 31.4z"/><path fill-rule="evenodd" class="e" d="m946.5 1727.7c0 17-13.8 30.8-30.8 30.8-17.1 0-30.9-13.8-30.9-30.8 0-17.1 13.8-31 30.9-31 17 0 30.8 13.9 30.8 31z"/><path fill-rule="evenodd" class="e" d="m943 1583.8c0 4.2-3.4 7.6-7.6 7.6-4.2 0-7.6-3.4-7.6-7.6 0-4.2 3.4-7.6 7.6-7.6 4.2 0 7.6 3.4 7.6 7.6z"/><path fill-rule="evenodd" class="e" d="m1214.5 1361.5c0 15.7-12.7 28.3-28.4 28.3-15.7 0-28.4-12.6-28.4-28.3 0-15.7 12.7-28.4 28.4-28.4 15.7 0 28.4 12.7 28.4 28.4z"/><path fill-rule="evenodd" class="e" d="m577.3 1988c0 9.2-7.4 16.7-16.7 16.7-9.2 0-16.7-7.5-16.7-16.7 0-9.3 7.5-16.8 16.7-16.8 9.3 0.1 16.7 7.5 16.7 16.8z"/></svg>