<svg version="1.2" xmlns="http://www.w3.org/2000/svg" viewBox="0 0 3473 4000" width="3473" height="4000"><style>.a{fill:#fdf3e2}.b{fill:#f19e38}.c{fill:#f6c552}.d{fill:#fff}.e{fill:none;stroke:#fdf3e2;stroke-width:5.6}</style><path class="a" d="m0 458.8h3473v2161h-3473z"/><path class="b" d="m3248.4 1818.5c-408.7 0-739-248.3-739-555.5 0-307.3 330.3-555.6 739-555.6 408.7 0 739 248.3 739 555.6 0 307.2-330.3 555.5-739 555.5z"/><path class="b" d="m574.2 809.7c-33.1 0-59.8-26.8-59.8-59.9 0-33.1 26.7-59.8 59.8-59.8 33.2 0 59.9 26.7 59.9 59.8 0 33.1-26.7 59.9-59.9 59.9z"/><path class="b" d="m1006 1232c-45.9 0-82.9-37-82.9-82.9 0-45.8 37-82.9 82.9-82.9 45.8 0 82.9 37.1 82.9 82.9 0 45.9-37.1 82.9-82.9 82.9z"/><path class="b" d="m1128.4 924.6c0.2-1.1 1.6-1.1 1.7 0l1 8.9c1.2 11.5 9.5 20.6 20.1 21.9l8.1 1.1c1 0.1 1 1.6 0 1.8l-8.1 1c-10.6 1.4-18.9 10.5-20.1 22l-1 8.9c-0.1 1-1.5 1-1.7 0l-0.9-8.9c-1.3-11.5-9.6-20.6-20.1-22l-8.2-1c-1-0.2-1-1.7 0-1.8l8.2-1.1c10.5-1.3 18.8-10.4 20.1-21.9z"/><path class="a" d="m526.3 0c-274.6 0-387.8 68.6-526.3 159l1.2 316.7h3471.8v-433.6c-40.9 52.6-169.5 131.2-342 152.3-215.5 26.5-425.2-189.5-859.8-189.5-440.8 0-533.5 105.3-840.6 189.5-307.1 84.3-568.3-194.4-904.3-194.4z"/><path class="c" d="m3871 1848h2686.2v302.2h-2686.2z"/><path class="c" d="m498.9 1401.7c-268.8-140.1-377.2-259.8-498.9-287.6v1439.2h3473v-1386.1c-108.5 159.6-384.7 244.1-436.2 251.4-127.8 18.1-297.7 41.1-788.2-212.7-490.4-253.8-795.3-22.1-1053.2 195.8-147.7 124.8-454.3 126.2-696.5 0z"/><path class="a" d="m232.4 3024.9c-251.8 0-455.3-203.5-455.3-455.3 0-251.8 203.5-455.4 455.3-455.4 251.8 0 455.4 203.6 455.4 455.4 0 251.8-203.6 455.3-455.4 455.3z"/><path class="a" d="m413.8 1597.6c-6.2 0-11.2-5-11.2-11.2 0-6.2 5-11.2 11.2-11.2 6.2 0 11.2 5 11.2 11.2 0 6.2-5 11.2-11.2 11.2z"/><path class="a" d="m391.4 1310.2c-18.5 0-33.6-15.1-33.6-33.6 0-18.6 15.1-33.6 33.6-33.6 18.6 0 33.6 15 33.6 33.6 0 18.5-15 33.6-33.6 33.6z"/><path class="a" d="m1557.3 1431.5c0.1-1.1 1.6-1.1 1.8 0l1 9.4c1.3 12.2 10.1 21.7 21.3 23.2l8.7 1.1c1 0.1 1 1.8 0 1.9l-8.7 1.1c-11.2 1.4-20 11-21.3 23.2l-1 9.4c-0.2 1.1-1.7 1.1-1.8 0l-1-9.4c-1.3-12.2-10.1-21.8-21.3-23.2l-8.7-1.1c-1-0.1-1-1.8 0-1.9l8.7-1.1c11.2-1.5 20-11 21.3-23.2z"/><path class="a" d="m1035.9 2244.1c0.1-1.2 1.6-1.2 1.8 0l1 9.4c1.3 12.1 10.1 21.7 21.3 23.1l8.7 1.1c1 0.2 1 1.8 0 1.9l-8.7 1.1c-11.2 1.5-20 11-21.3 23.2l-1 9.4c-0.2 1.1-1.7 1.1-1.8 0l-1-9.4c-1.3-12.2-10.2-21.7-21.3-23.2l-8.7-1.1c-1-0.1-1-1.7 0-1.9l8.7-1.1c11.1-1.4 20-11 21.3-23.1z"/><path class="a" d="m2863.6 2236.7c-18.6 0-33.6-15-33.6-33.6 0-18.6 15-33.6 33.6-33.6 18.6 0 33.6 15 33.6 33.6 0 18.6-15 33.6-33.6 33.6z"/><path class="a" d="m2409.9 2274.5c-6.1 0-11-4.9-11-11 0-6.1 4.9-11.1 11-11.1 6.1 0 11.1 5 11.1 11.1 0 6.1-5 11-11.1 11z"/><path class="d" d="m0 2706.8h3473v1293.2h-3473z"/><path class="a" d="m533.4 4000c-413.1 0-747.1-242.5-747.1-542.6 0-300 334-542.6 747.1-542.6 413.2 0 747.2 242.6 747.2 542.6 0 300.1-334 542.6-747.2 542.6z"/><path class="b" d="m2758.4 3688.2c263.6 106.4 296.4 176.1 714.6 153.9v-1141h-3473v1072.5c224.1-85.4 413.3-85.4 485.6-85.4 129 0 282 12.5 513.4 102.3 231.4 89.8 412.3 111 602.5 73.8 245.9-48.1 468.1-154.6 565.2-193 135-53.3 394.1-62.8 591.7 16.9z"/><path class="b" d="m380.2 2414.9c-165.2 84.2-301.3 42.9-382 0v339.6h3473v-339.6c0 0-282-142.8-650.8-44.8-269.7 71.6-454.3 87.7-808.6-31.8-354.3-119.4-541.1 119.5-794.1 119.5-253.1 0-470-230.5-837.5-42.9z"/><path class="a" d="m2906.6 3702.9c-21.2 0-38.3-16.7-38.3-37.3 0-20.7 17.1-37.4 38.3-37.4 21.1 0 38.2 16.7 38.2 37.4 0 20.6-17.1 37.3-38.2 37.3z"/><path class="a" d="m1508.8 2418.9c-23.2 0-42-18.7-42-42 0-23.2 18.8-42 42-42 23.2 0 42 18.8 42 42 0 23.3-18.8 42-42 42z"/><path class="a" d="m2847.8 2803.4c-9.3 0-16.8-7.6-16.8-16.8 0-9.3 7.5-16.8 16.8-16.8 9.3 0 16.8 7.5 16.8 16.8 0 9.2-7.5 16.8-16.8 16.8z"/><path class="a" d="m1843.8 3574.1c-9.3 0-16.8-7.5-16.8-16.8 0-9.3 7.5-16.8 16.8-16.8 9.3 0 16.8 7.5 16.8 16.8 0 9.3-7.5 16.8-16.8 16.8z"/><path class="a" d="m2980.3 3240.1c-71.2 0-128.8-57.6-128.8-128.8 0-71.2 57.6-128.8 128.8-128.8 71.2 0 128.8 57.6 128.8 128.8 0 71.2-57.6 128.8-128.8 128.8z"/><path class="a" d="m2806.8 2451.6c-32 0-57.9-25.9-57.9-57.9 0-32 25.9-57.8 57.9-57.8 31.9 0 57.8 25.8 57.8 57.8 0 32-25.9 57.9-57.8 57.9z"/><path class="a" d="m2525 2739.9c-56.8 0-102.7-45.9-102.7-102.6 0-56.8 45.9-102.7 102.7-102.7 56.7 0 102.6 45.9 102.6 102.7 0 56.7-45.9 102.6-102.6 102.6z"/><path class="a" d="m1834.8 2534.6c0.2-1.1 1.7-1.1 1.8 0l1 9.4c1.3 12.2 10.2 21.7 21.3 23.2l8.7 1.1c1 0.1 1 1.8 0 1.9l-8.7 1.1c-11.1 1.4-20 11-21.3 23.2l-1 9.4c-0.1 1.1-1.6 1.1-1.8 0l-1-9.4c-1.3-12.2-10.1-21.8-21.3-23.2l-8.7-1.1c-1-0.1-1-1.8 0-1.9l8.7-1.1c11.2-1.5 20-11 21.3-23.2z"/><path class="a" d="m2676 3356.7c0.2-1.3 1.9-1.3 2.1 0l1.2 10.9c1.5 14.1 11.9 25.2 25 26.8l10.1 1.3c1.2 0.2 1.2 2.1 0 2.2l-10.1 1.3c-13.1 1.7-23.5 12.8-25 26.8l-1.2 10.9c-0.2 1.3-1.9 1.3-2.1 0l-1.2-10.9c-1.5-14-11.8-25.1-24.9-26.8l-10.2-1.3c-1.2-0.1-1.2-2 0-2.2l10.2-1.3c13.1-1.6 23.4-12.7 24.9-26.8z"/><path class="b" d="m2582.8 3855c-32 0-57.8-25.9-57.8-57.9 0-32 25.8-57.8 57.8-57.8 32 0 57.9 25.8 57.9 57.8 0 32-25.9 57.9-57.9 57.9z"/><path fill-rule="evenodd" class="e" d="m1687 3240.1c-31.4 0-56.9-25.5-56.9-57 0-31.4 25.5-56.9 56.9-56.9 31.5 0 57 25.5 57 56.9 0 31.5-25.5 57-57 57z"/><path fill-rule="evenodd" class="e" d="m1723.4 2932.1c-7.7 0-14-6.2-14-14 0-7.7 6.3-14 14-14 7.8 0 14 6.3 14 14 0 7.8-6.2 14-14 14z"/><path fill-rule="evenodd" class="e" d="m2185.3 2560.8c-28.9 0-52.2-23.4-52.2-52.3 0-28.9 23.3-52.2 52.2-52.2 28.9 0 52.3 23.3 52.3 52.2 0 28.9-23.4 52.3-52.3 52.3z"/><path fill-rule="evenodd" class="e" d="m1032.9 3693.5c-17 0-30.8-13.7-30.8-30.7 0-17.1 13.8-30.8 30.8-30.8 17.1 0 30.8 13.7 30.8 30.8 0 17-13.7 30.7-30.8 30.7z"/></svg>