<svg width="57" height="57" viewBox="0 0 57 57" fill="none" xmlns="http://www.w3.org/2000/svg">
<path d="M54.4451 35.292C51.6349 34.5704 46.9007 33.7983 45.1538 32.6084C44.4323 32.1147 44.5209 31.5704 44.6474 31.1906C44.774 30.8362 45.4956 30.4691 45.9386 30.4944C46.9386 30.5324 47.9386 30.7476 48.9007 31.0134C51.04 31.5957 53.1666 32.2033 55.2679 32.8995C56.3819 33.2666 56.7363 34.1147 56.0907 34.659C55.711 34.9755 55.3565 35.292 54.4451 35.292Z" fill="#F19E38"/>
<path d="M10.1394 54.8495C10.266 54.1786 10.5192 53.8242 10.8863 53.3052C12.3167 51.3051 13.8104 49.3431 15.2788 47.381C15.3674 47.2671 15.4687 47.1405 15.5826 47.0519C16.0889 46.6215 16.6585 46.1151 17.3168 46.5835C17.975 47.0645 17.7472 47.7734 17.3927 48.343C15.9244 50.7355 14.4307 53.1153 12.9116 55.4824C12.6838 55.8495 12.2914 56.166 11.899 56.3558C10.9243 56.8242 10.0635 56.1786 10.1394 54.8495Z" fill="#F19E38"/>
<path d="M41.7732 54.4068C41.7732 54.9764 41.3302 55.3815 41.001 55.4448C40.558 55.5334 40.1782 55.4575 39.5453 55.0271C39.3301 54.8878 39.2035 54.546 39.077 54.2802C38.1529 52.2802 37.2162 50.2928 36.3174 48.2801C36.0896 47.7864 35.8617 47.2168 35.8997 46.6978C35.9377 46.2294 36.2288 45.5585 36.6086 45.394C36.9757 45.2294 37.4693 45.1788 38.0516 45.7484C38.2668 45.9509 38.4693 46.2927 38.6086 46.6092C39.52 48.7231 40.4314 50.8371 41.3175 52.9637C41.4821 53.3688 41.5833 53.8119 41.7732 54.4068Z" fill="#F19E38"/>
<path d="M1.59522 36.9631C1.01293 36.7985 0.633178 36.52 0.544569 36.1403C0.430643 35.6592 0.671154 35.0137 0.94964 34.5579C1.16483 34.2162 1.65851 34.001 2.07624 33.8617C4.16489 33.1655 6.2662 32.482 8.38016 31.8364C8.7346 31.7225 9.1903 31.6845 9.53208 31.7984C10.0891 31.9883 10.3296 32.4313 9.87386 32.963C9.62069 33.2668 9.32954 33.5832 8.98777 33.7478C7.01305 34.7352 5.02567 35.6846 3.02563 36.6213C2.65853 36.7858 2.16485 37.1403 1.59522 36.9631Z" fill="#F19E38"/>
<path d="M44.4817 15.2413C44.2033 15.1273 43.9627 14.6716 43.9501 14.3678C43.9374 13.9501 44.064 13.4438 44.3172 13.102C45.4944 11.4817 46.7349 9.88672 47.9628 8.30441C48.14 8.0639 48.3805 7.87403 48.6211 7.68415C49.1654 7.26642 49.8742 6.89932 50.3553 7.53225C50.6338 7.89934 50.7224 8.83607 50.4565 9.15253C48.8363 11.1273 47.0894 13.0134 45.3552 14.8995C45.2159 15.064 44.9374 15.3299 44.4817 15.2413Z" fill="#F19E38"/>
<path d="M3.89946 12.4946C4.60834 12.7098 5.15265 12.8363 5.67165 13.0262C7.17801 13.5705 8.68436 14.1275 10.1781 14.6971C10.5958 14.8617 11.0388 15.0263 11.3806 15.2921C11.6211 15.482 11.887 15.963 11.7983 16.1402C11.6464 16.4313 11.4186 16.7984 10.8996 16.7605C10.6844 16.7478 10.4059 16.7352 10.1654 16.6719C8.46917 16.2162 6.77294 15.7858 5.08936 15.2794C4.51973 15.1149 3.92478 14.8744 3.46908 14.5073C3.13996 14.2414 2.83615 13.6465 2.92476 13.2921C3.00071 12.9629 3.2792 12.4946 3.89946 12.4946Z" fill="#F19E38"/>
<path d="M27.0644 7.25352C27.0518 7.40542 27.0391 7.55732 26.9885 7.69657C26.7733 8.31683 26.634 9.01305 25.7606 8.94976C24.8365 8.88646 24.7986 8.12696 24.8112 7.50669C24.8492 6.01299 24.9884 4.51929 25.1024 3.01293C25.153 2.46862 25.2163 1.91165 25.3682 1.39265C25.5201 0.860995 25.7353 0.316681 26.4695 0.40529C27.153 0.493899 27.3809 0.949605 27.3935 1.55721C27.3935 2.21545 27.191 6.01299 27.0644 7.25352Z" fill="#F19E38"/>
</svg>
