<svg width="1015" height="436" viewBox="0 0 1015 436" fill="none" xmlns="http://www.w3.org/2000/svg">
<rect x="4" width="1010.25" height="427.5" rx="9" fill="#FDF3E2"/>
<mask id="mask0_1_13340" style="mask-type:alpha" maskUnits="userSpaceOnUse" x="4" y="0" width="1011" height="428">
<rect x="4" width="1010.25" height="427.5" rx="9" fill="#F0E4F4"/>
</mask>
<g mask="url(#mask0_1_13340)">
<path d="M45.6104 -69C19.294 -69 -2.11426 -47.5918 -2.11426 -21.2753C-2.11426 5.0411 19.2929 26.4493 45.6104 26.4493C71.9268 26.4493 93.3351 5.0411 93.3351 -21.2753C93.334 -47.5918 71.9258 -69 45.6104 -69Z" fill="#F6C552" fill-opacity="0.2"/>
<path d="M205.158 158.248L46.0771 62.7995C36.3073 56.9315 24.0516 56.7056 14.0124 62.4113C4.0698 68.0195 -2.1132 78.6303 -2.1132 90.08V217.346H-2.11426C-2.11426 225.844 1.19465 233.829 7.2069 239.841L61.5176 294.153V408.243C61.5176 425.783 75.7947 440.06 93.334 440.06C110.873 440.06 125.15 425.783 125.15 408.243V280.978C125.15 272.479 121.842 264.495 115.829 258.482L61.5176 204.172V146.272L172.408 212.809C187.796 222.031 207.291 216.458 216.063 201.918C225.041 186.901 220.3 167.3 205.158 158.248Z" fill="#F6C552" fill-opacity="0.2"/>
<path d="M-2.11116 275.51V303.163L-60.3989 390.594C-70.1994 405.312 -66.1174 425.018 -51.59 434.715C-37.0085 444.422 -17.2569 440.582 -7.4542 425.891L29.7063 370.154V307.326L-2.11116 275.51Z" fill="#F6C552" fill-opacity="0.2"/>
<path d="M236.509 312.794H429.526C436.828 312.794 443.182 307.822 444.953 300.739L476.77 173.474C477.966 168.721 476.894 163.686 473.88 159.834C470.866 155.966 466.236 153.714 461.343 153.714H243.559C254.743 173.075 255.661 197.686 243.375 218.247C235.196 231.792 222.166 241.403 207.394 245.995L217.185 285.149C200.489 292.588 188.784 309.275 188.784 328.702C188.784 350.702 203.821 369.085 224.104 374.586C221.888 380.084 220.601 386.052 220.601 392.335C220.601 418.652 242.009 440.06 268.325 440.06C294.642 440.06 316.05 418.652 316.05 392.335C316.05 386.731 314.902 381.321 313.12 376.321H352.918C351.135 381.321 349.987 386.731 349.987 392.335C349.987 418.652 371.396 440.06 397.712 440.06C424.029 440.06 445.437 418.652 445.437 392.335C445.437 366.019 424.029 344.61 397.712 344.61H236.509C227.732 344.61 220.601 337.479 220.601 328.702C220.601 319.925 227.732 312.794 236.509 312.794ZM397.71 376.426C406.487 376.426 413.618 383.557 413.618 392.334C413.618 401.111 406.487 408.242 397.71 408.242C388.933 408.242 381.802 401.111 381.802 392.334C381.802 383.557 388.933 376.426 397.71 376.426ZM268.325 376.426C277.102 376.426 284.233 383.556 284.233 392.334C284.233 401.111 277.102 408.242 268.325 408.242C259.548 408.242 252.417 401.111 252.417 392.334C252.417 383.557 259.548 376.426 268.325 376.426Z" fill="#F6C552" fill-opacity="0.2"/>
</g>
</svg>
