<svg width="33" height="45" viewBox="0 0 33 45" fill="none" xmlns="http://www.w3.org/2000/svg">
<path d="M23.9484 31.5371L26.0062 28.1979L29.7198 26.9314L30.1312 23.0311L32.9251 20.2806L31.5968 16.5886L32.9251 12.8966L30.1313 10.1461L29.7199 6.24586L26.0063 4.97935L23.9485 1.64013L20.0563 2.11008L16.7499 0L13.4436 2.11025L9.55142 1.6403L7.49363 4.97944L3.78008 6.24595L3.36866 10.1462L0.574707 12.8967L1.90309 16.5887L0.574707 20.2808L3.36857 23.0312L3.77999 26.9315L7.49354 28.198L9.55133 31.5372L13.4436 31.0673L16.7499 33.1775L20.0563 31.0673L23.9484 31.5371ZM5.37433 16.5887C5.37433 10.3162 10.4774 5.21314 16.7499 5.21314C23.0224 5.21314 28.1255 10.3162 28.1255 16.5887C28.1255 22.8612 23.0224 27.9643 16.7499 27.9643C10.4774 27.9643 5.37433 22.8612 5.37433 16.5887Z" fill="#F19E38"/>
<path d="M16.7494 7.85156C11.9317 7.85156 8.01221 11.771 8.01221 16.5888C8.01221 21.4065 11.9317 25.326 16.7494 25.326C21.5671 25.326 25.4866 21.4065 25.4866 16.5888C25.4866 11.771 21.5671 7.85156 16.7494 7.85156Z" fill="#F19E38"/>
<path d="M12.8212 33.7998L8.19113 34.3588L5.74487 30.389L4.91325 30.1055L1.32617 41.3173L7.78394 40.9622L12.8363 44.9999L15.8095 35.707L12.8212 33.7998Z" fill="#F19E38"/>
<path d="M27.755 30.3891L25.3087 34.3588L20.6787 33.7998L17.6904 35.707L20.6636 44.9999L25.716 40.9622L32.1738 41.3173L28.5867 30.1055L27.755 30.3891Z" fill="#F19E38"/>
</svg>
