<svg width="34" height="28" viewBox="0 0 34 28" fill="none" xmlns="http://www.w3.org/2000/svg">
<path d="M33.2894 3.88319C32.8984 2.42119 31.7458 1.26859 30.2838 0.877592C27.6318 0.166993 17 0.166992 17 0.166992C17 0.166992 6.3682 0.166993 3.7162 0.877592C2.2542 1.26859 1.1016 2.42119 0.7106 3.88319C0 6.53518 0 13.767 0 13.767C0 13.767 0 20.9988 0.7106 23.6508C1.1016 25.1128 2.2542 26.2654 3.7162 26.6564C6.3682 27.367 17 27.367 17 27.367C17 27.367 27.6318 27.367 30.2838 26.6564C31.7475 26.2654 32.8984 25.1128 33.2894 23.6508C34 20.9988 34 13.767 34 13.767C34 13.767 34 6.53518 33.2894 3.88319ZM13.6 18.1836V9.35038C13.6 8.69588 14.3089 8.28788 14.875 8.61428L22.525 13.0309C23.0911 13.3573 23.0911 14.1767 22.525 14.5031L14.875 18.9197C14.3089 19.2478 13.6 18.8381 13.6 18.1836Z" fill="#f19e38"/>
</svg>
