<svg width="34" height="34" viewBox="0 0 34 34" fill="none" xmlns="http://www.w3.org/2000/svg">
<path d="M22.44 17C22.44 18.0759 22.1209 19.1277 21.5232 20.0223C20.9254 20.9169 20.0758 21.6141 19.0818 22.0259C18.0877 22.4376 16.9939 22.5454 15.9387 22.3354C14.8834 22.1255 13.9141 21.6074 13.1533 20.8466C12.3925 20.0858 11.8744 19.1165 11.6645 18.0613C11.4546 17.006 11.5623 15.9122 11.9741 14.9182C12.3858 13.9242 13.0831 13.0745 13.9777 12.4768C14.8723 11.879 15.9241 11.56 17 11.56C18.4423 11.5616 19.825 12.1353 20.8448 13.1551C21.8647 14.175 22.4383 15.5577 22.44 17ZM34 9.51999V24.48C33.9971 27.004 32.9932 29.4237 31.2085 31.2085C29.4237 32.9932 27.004 33.9971 24.48 34H9.51999C6.99601 33.9971 4.57622 32.9932 2.7915 31.2085C1.00677 29.4237 0.0028585 27.004 0 24.48V9.51999C0.0028585 6.99601 1.00677 4.57622 2.7915 2.7915C4.57622 1.00677 6.99601 0.0028585 9.51999 0H24.48C27.004 0.0028585 29.4237 1.00677 31.2085 2.7915C32.9932 4.57622 33.9971 6.99601 34 9.51999ZM25.16 17C25.16 15.3861 24.6814 13.8084 23.7848 12.4665C22.8881 11.1246 21.6137 10.0787 20.1227 9.46113C18.6316 8.84352 16.9909 8.68193 15.408 8.99678C13.8252 9.31164 12.3712 10.0888 11.23 11.23C10.0888 12.3712 9.31164 13.8252 8.99678 15.408C8.68193 16.9909 8.84352 18.6316 9.46113 20.1227C10.0787 21.6137 11.1246 22.8881 12.4665 23.7848C13.8084 24.6814 15.3861 25.16 17 25.16C19.1634 25.1575 21.2375 24.297 22.7673 22.7673C24.297 21.2375 25.1575 19.1634 25.16 17ZM27.88 8.15999C27.88 7.75652 27.7603 7.36211 27.5362 7.02663C27.312 6.69115 26.9934 6.42968 26.6206 6.27528C26.2479 6.12088 25.8377 6.08048 25.442 6.15919C25.0463 6.23791 24.6828 6.4322 24.3975 6.71749C24.1122 7.00279 23.9179 7.36629 23.8392 7.76201C23.7605 8.15773 23.8009 8.5679 23.9553 8.94066C24.1097 9.31343 24.3711 9.63203 24.7066 9.85619C25.0421 10.0803 25.4365 10.2 25.84 10.2C26.381 10.2 26.8999 9.98506 27.2825 9.60249C27.665 9.21991 27.88 8.70103 27.88 8.15999Z" fill="black"/>
</svg>
