<svg width="34" height="38" viewBox="0 0 34 38" fill="none" xmlns="http://www.w3.org/2000/svg">
<path d="M30.2222 2C31.2241 2 32.185 2.39801 32.8935 3.10649C33.602 3.81496 34 4.77585 34 5.77778V32.2222C34 33.2241 33.602 34.185 32.8935 34.8935C32.185 35.602 31.2241 36 30.2222 36H3.77778C2.77585 36 1.81496 35.602 1.10649 34.8935C0.398015 34.185 0 33.2241 0 32.2222V5.77778C0 4.77585 0.398015 3.81496 1.10649 3.10649C1.81496 2.39801 2.77585 2 3.77778 2H30.2222ZM29.2778 31.2778V21.2667C29.2778 19.6335 28.629 18.0673 27.4742 16.9125C26.3194 15.7577 24.7531 15.1089 23.12 15.1089C21.5144 15.1089 19.6444 16.0911 18.7378 17.5644V15.4678H13.4678V31.2778H18.7378V21.9656C18.7378 20.5111 19.9089 19.3211 21.3633 19.3211C22.0647 19.3211 22.7373 19.5997 23.2332 20.0956C23.7292 20.5916 24.0078 21.2642 24.0078 21.9656V31.2778H29.2778ZM7.32889 12.5022C8.17051 12.5022 8.97766 12.1679 9.57277 11.5728C10.1679 10.9777 10.5022 10.1705 10.5022 9.32889C10.5022 7.57222 9.08556 6.13667 7.32889 6.13667C6.48226 6.13667 5.6703 6.47299 5.07165 7.07165C4.47299 7.6703 4.13667 8.48226 4.13667 9.32889C4.13667 11.0856 5.57222 12.5022 7.32889 12.5022ZM9.95444 31.2778V15.4678H4.72222V31.2778H9.95444Z" fill="black"/>
</svg>
