<svg width="34" height="35" viewBox="0 0 34 35" fill="none" xmlns="http://www.w3.org/2000/svg">
<path  d="M30.9091 0.541504H3.09091C1.38318 0.541504 0 1.92469 0 3.63242V31.4507C0 33.1584 1.38318 34.5416 3.09091 34.5416H18.5455V20.6325H13.9091V15.9961H18.5455V13.5064C18.5455 8.79271 20.842 6.72334 24.7597 6.72334C26.6359 6.72334 27.6281 6.86243 28.0979 6.9258V11.3597H25.4258C23.7629 11.3597 23.1818 12.2375 23.1818 14.0148V15.9961H28.0562L27.3947 20.6325H23.1818V34.5416H30.9091C32.6168 34.5416 34 33.1584 34 31.4507V3.63242C34 1.92469 32.6153 0.541504 30.9091 0.541504Z" fill="black"/>
</svg>
