<svg width="34" height="35" viewBox="0 0 34 35" fill="none" xmlns="http://www.w3.org/2000/svg">
<path d="M3.09091 0.625C1.38318 0.625 0 2.00819 0 3.71592V31.5342C0 33.2419 1.38318 34.6251 3.09091 34.6251H30.9091C32.6168 34.6251 34 33.2419 34 31.5342V3.71592C34 2.00819 32.6168 0.625 30.9091 0.625H3.09091ZM7.18395 8.3523H14.3105L18.47 14.2987L23.6165 8.3523H25.8592L19.4782 15.7415L27.2839 26.8978H20.1573L15.5421 20.2994L9.84322 26.8978H7.56428L14.5279 18.8536L7.18395 8.3523ZM10.631 10.1815L21.0689 25.0596H23.8338L13.3929 10.1815H10.631Z" fill="#f19e38"/>
</svg>
