<svg width="34" height="34" viewBox="0 0 34 34" fill="none" xmlns="http://www.w3.org/2000/svg">
<g clip-path="url(#clip0_1_10775)">
<path d="M2.54199 6.02051C2.54199 5.43371 3.01769 4.95801 3.60449 4.95801H4.39536C5.74186 4.95801 6.54807 5.86324 7.0091 6.70474C7.31638 7.26567 7.53869 7.91626 7.71257 8.50527C7.75966 8.50157 7.80737 8.49967 7.85562 8.49967H25.5601C26.7362 8.49967 27.5855 9.6251 27.2631 10.7561L24.6737 19.8357C24.1966 21.5092 22.6674 22.6632 20.9273 22.6632H12.5008C10.7463 22.6632 9.20826 21.4904 8.74392 19.7984L7.66656 15.8727L5.88354 9.85369L5.88065 9.84315C5.66007 9.03873 5.45306 8.28724 5.14544 7.72575C4.84671 7.18047 4.60858 7.08301 4.39536 7.08301H3.60449C3.01769 7.08301 2.54199 6.6073 2.54199 6.02051ZM11.7503 29.7497C13.3152 29.7497 14.5837 28.4812 14.5837 26.9163C14.5837 25.3515 13.3152 24.083 11.7503 24.083C10.1855 24.083 8.91699 25.3515 8.91699 26.9163C8.91699 28.4812 10.1855 29.7497 11.7503 29.7497ZM21.667 29.7497C23.2318 29.7497 24.5003 28.4812 24.5003 26.9163C24.5003 25.3515 23.2318 24.083 21.667 24.083C20.1021 24.083 18.8337 25.3515 18.8337 26.9163C18.8337 28.4812 20.1021 29.7497 21.667 29.7497Z" fill="#646464"/>
<circle cx="24" cy="8" r="8" fill="#F19E38"/>
<path d="M21.53 8.26C21.53 7.10667 21.7367 6.20333 22.15 5.55C22.57 4.89667 23.2633 4.57 24.23 4.57C25.1967 4.57 25.8867 4.89667 26.3 5.55C26.72 6.20333 26.93 7.10667 26.93 8.26C26.93 9.42 26.72 10.33 26.3 10.99C25.8867 11.65 25.1967 11.98 24.23 11.98C23.2633 11.98 22.57 11.65 22.15 10.99C21.7367 10.33 21.53 9.42 21.53 8.26ZM25.55 8.26C25.55 7.76667 25.5167 7.35333 25.45 7.02C25.39 6.68 25.2633 6.40333 25.07 6.19C24.8833 5.97667 24.6033 5.87 24.23 5.87C23.8567 5.87 23.5733 5.97667 23.38 6.19C23.1933 6.40333 23.0667 6.68 23 7.02C22.94 7.35333 22.91 7.76667 22.91 8.26C22.91 8.76667 22.94 9.19333 23 9.54C23.06 9.88 23.1867 10.1567 23.38 10.37C23.5733 10.5767 23.8567 10.68 24.23 10.68C24.6033 10.68 24.8867 10.5767 25.08 10.37C25.2733 10.1567 25.4 9.88 25.46 9.54C25.52 9.19333 25.55 8.76667 25.55 8.26Z" fill="black"/>
</g>
<defs>
<clipPath id="clip0_1_10775">
<rect width="34" height="34" fill="white"/>
</clipPath>
</defs>
</svg>
