<svg width="45" height="45" viewBox="0 0 45 45" fill="none" xmlns="http://www.w3.org/2000/svg">
<path d="M3.75 1.875C3.75 2.91053 2.91053 3.75 1.875 3.75C0.839466 3.75 0 2.91053 0 1.875C0 0.839466 0.839466 0 1.875 0C2.91053 0 3.75 0.839466 3.75 1.875Z" fill="#F19E38" fill-opacity="0.5"/>
<path d="M12 1.875C12 2.91053 11.1605 3.75 10.125 3.75C9.08947 3.75 8.25 2.91053 8.25 1.875C8.25 0.839466 9.08947 0 10.125 0C11.1605 0 12 0.839466 12 1.875Z" fill="#F19E38" fill-opacity="0.5"/>
<path d="M20.25 1.875C20.25 2.91053 19.4105 3.75 18.375 3.75C17.3395 3.75 16.5 2.91053 16.5 1.875C16.5 0.839466 17.3395 0 18.375 0C19.4105 0 20.25 0.839466 20.25 1.875Z" fill="#F19E38" fill-opacity="0.5"/>
<path d="M28.5 1.875C28.5 2.91053 27.6605 3.75 26.625 3.75C25.5895 3.75 24.75 2.91053 24.75 1.875C24.75 0.839466 25.5895 0 26.625 0C27.6605 0 28.5 0.839466 28.5 1.875Z" fill="#F19E38" fill-opacity="0.5"/>
<path d="M36.75 1.875C36.75 2.91053 35.9105 3.75 34.875 3.75C33.8395 3.75 33 2.91053 33 1.875C33 0.839466 33.8395 0 34.875 0C35.9105 0 36.75 0.839466 36.75 1.875Z" fill="#F19E38" fill-opacity="0.5"/>
<path d="M45 1.875C45 2.91053 44.1605 3.75 43.125 3.75C42.0895 3.75 41.25 2.91053 41.25 1.875C41.25 0.839466 42.0895 0 43.125 0C44.1605 0 45 0.839466 45 1.875Z" fill="#F19E38" fill-opacity="0.5"/>
<path d="M3.75 10.125C3.75 11.1605 2.91053 12 1.875 12C0.839466 12 0 11.1605 0 10.125C0 9.08947 0.839466 8.25 1.875 8.25C2.91053 8.25 3.75 9.08947 3.75 10.125Z" fill="#F19E38" fill-opacity="0.5"/>
<path d="M12 10.125C12 11.1605 11.1605 12 10.125 12C9.08947 12 8.25 11.1605 8.25 10.125C8.25 9.08947 9.08947 8.25 10.125 8.25C11.1605 8.25 12 9.08947 12 10.125Z" fill="#F19E38" fill-opacity="0.5"/>
<path d="M20.25 10.125C20.25 11.1605 19.4105 12 18.375 12C17.3395 12 16.5 11.1605 16.5 10.125C16.5 9.08947 17.3395 8.25 18.375 8.25C19.4105 8.25 20.25 9.08947 20.25 10.125Z" fill="#F19E38" fill-opacity="0.5"/>
<path d="M28.5 10.125C28.5 11.1605 27.6605 12 26.625 12C25.5895 12 24.75 11.1605 24.75 10.125C24.75 9.08947 25.5895 8.25 26.625 8.25C27.6605 8.25 28.5 9.08947 28.5 10.125Z" fill="#F19E38" fill-opacity="0.5"/>
<path d="M36.75 10.125C36.75 11.1605 35.9105 12 34.875 12C33.8395 12 33 11.1605 33 10.125C33 9.08947 33.8395 8.25 34.875 8.25C35.9105 8.25 36.75 9.08947 36.75 10.125Z" fill="#F19E38" fill-opacity="0.5"/>
<path d="M45 10.125C45 11.1605 44.1605 12 43.125 12C42.0895 12 41.25 11.1605 41.25 10.125C41.25 9.08947 42.0895 8.25 43.125 8.25C44.1605 8.25 45 9.08947 45 10.125Z" fill="#F19E38" fill-opacity="0.5"/>
<path d="M3.75 18.375C3.75 19.4105 2.91053 20.25 1.875 20.25C0.839466 20.25 0 19.4105 0 18.375C0 17.3395 0.839466 16.5 1.875 16.5C2.91053 16.5 3.75 17.3395 3.75 18.375Z" fill="#F19E38" fill-opacity="0.5"/>
<path d="M12 18.375C12 19.4105 11.1605 20.25 10.125 20.25C9.08947 20.25 8.25 19.4105 8.25 18.375C8.25 17.3395 9.08947 16.5 10.125 16.5C11.1605 16.5 12 17.3395 12 18.375Z" fill="#F19E38" fill-opacity="0.5"/>
<path d="M20.25 18.375C20.25 19.4105 19.4105 20.25 18.375 20.25C17.3395 20.25 16.5 19.4105 16.5 18.375C16.5 17.3395 17.3395 16.5 18.375 16.5C19.4105 16.5 20.25 17.3395 20.25 18.375Z" fill="#F19E38" fill-opacity="0.5"/>
<path d="M28.5 18.375C28.5 19.4105 27.6605 20.25 26.625 20.25C25.5895 20.25 24.75 19.4105 24.75 18.375C24.75 17.3395 25.5895 16.5 26.625 16.5C27.6605 16.5 28.5 17.3395 28.5 18.375Z" fill="#F19E38" fill-opacity="0.5"/>
<path d="M36.75 18.375C36.75 19.4105 35.9105 20.25 34.875 20.25C33.8395 20.25 33 19.4105 33 18.375C33 17.3395 33.8395 16.5 34.875 16.5C35.9105 16.5 36.75 17.3395 36.75 18.375Z" fill="#F19E38" fill-opacity="0.5"/>
<path d="M45 18.375C45 19.4105 44.1605 20.25 43.125 20.25C42.0895 20.25 41.25 19.4105 41.25 18.375C41.25 17.3395 42.0895 16.5 43.125 16.5C44.1605 16.5 45 17.3395 45 18.375Z" fill="#F19E38" fill-opacity="0.5"/>
<path d="M3.75 26.625C3.75 27.6605 2.91053 28.5 1.875 28.5C0.839466 28.5 0 27.6605 0 26.625C0 25.5895 0.839466 24.75 1.875 24.75C2.91053 24.75 3.75 25.5895 3.75 26.625Z" fill="#F19E38" fill-opacity="0.5"/>
<path d="M12 26.625C12 27.6605 11.1605 28.5 10.125 28.5C9.08947 28.5 8.25 27.6605 8.25 26.625C8.25 25.5895 9.08947 24.75 10.125 24.75C11.1605 24.75 12 25.5895 12 26.625Z" fill="#F19E38" fill-opacity="0.5"/>
<path d="M20.25 26.625C20.25 27.6605 19.4105 28.5 18.375 28.5C17.3395 28.5 16.5 27.6605 16.5 26.625C16.5 25.5895 17.3395 24.75 18.375 24.75C19.4105 24.75 20.25 25.5895 20.25 26.625Z" fill="#F19E38" fill-opacity="0.5"/>
<path d="M28.5 26.625C28.5 27.6605 27.6605 28.5 26.625 28.5C25.5895 28.5 24.75 27.6605 24.75 26.625C24.75 25.5895 25.5895 24.75 26.625 24.75C27.6605 24.75 28.5 25.5895 28.5 26.625Z" fill="#F19E38" fill-opacity="0.5"/>
<path d="M36.75 26.625C36.75 27.6605 35.9105 28.5 34.875 28.5C33.8395 28.5 33 27.6605 33 26.625C33 25.5895 33.8395 24.75 34.875 24.75C35.9105 24.75 36.75 25.5895 36.75 26.625Z" fill="#F19E38" fill-opacity="0.5"/>
<path d="M45 26.625C45 27.6605 44.1605 28.5 43.125 28.5C42.0895 28.5 41.25 27.6605 41.25 26.625C41.25 25.5895 42.0895 24.75 43.125 24.75C44.1605 24.75 45 25.5895 45 26.625Z" fill="#F19E38" fill-opacity="0.5"/>
<path d="M3.75 34.875C3.75 35.9105 2.91053 36.75 1.875 36.75C0.839466 36.75 0 35.9105 0 34.875C0 33.8395 0.839466 33 1.875 33C2.91053 33 3.75 33.8395 3.75 34.875Z" fill="#F19E38" fill-opacity="0.5"/>
<path d="M12 34.875C12 35.9105 11.1605 36.75 10.125 36.75C9.08947 36.75 8.25 35.9105 8.25 34.875C8.25 33.8395 9.08947 33 10.125 33C11.1605 33 12 33.8395 12 34.875Z" fill="#F19E38" fill-opacity="0.5"/>
<path d="M20.25 34.875C20.25 35.9105 19.4105 36.75 18.375 36.75C17.3395 36.75 16.5 35.9105 16.5 34.875C16.5 33.8395 17.3395 33 18.375 33C19.4105 33 20.25 33.8395 20.25 34.875Z" fill="#F19E38" fill-opacity="0.5"/>
<path d="M28.5 34.875C28.5 35.9105 27.6605 36.75 26.625 36.75C25.5895 36.75 24.75 35.9105 24.75 34.875C24.75 33.8395 25.5895 33 26.625 33C27.6605 33 28.5 33.8395 28.5 34.875Z" fill="#F19E38" fill-opacity="0.5"/>
<path d="M36.75 34.875C36.75 35.9105 35.9105 36.75 34.875 36.75C33.8395 36.75 33 35.9105 33 34.875C33 33.8395 33.8395 33 34.875 33C35.9105 33 36.75 33.8395 36.75 34.875Z" fill="#F19E38" fill-opacity="0.5"/>
<path d="M45 34.875C45 35.9105 44.1605 36.75 43.125 36.75C42.0895 36.75 41.25 35.9105 41.25 34.875C41.25 33.8395 42.0895 33 43.125 33C44.1605 33 45 33.8395 45 34.875Z" fill="#F19E38" fill-opacity="0.5"/>
<path d="M3.75 43.125C3.75 44.1605 2.91053 45 1.875 45C0.839466 45 0 44.1605 0 43.125C0 42.0895 0.839466 41.25 1.875 41.25C2.91053 41.25 3.75 42.0895 3.75 43.125Z" fill="#F19E38" fill-opacity="0.5"/>
<path d="M12 43.125C12 44.1605 11.1605 45 10.125 45C9.08947 45 8.25 44.1605 8.25 43.125C8.25 42.0895 9.08947 41.25 10.125 41.25C11.1605 41.25 12 42.0895 12 43.125Z" fill="#F19E38" fill-opacity="0.5"/>
<path d="M20.25 43.125C20.25 44.1605 19.4105 45 18.375 45C17.3395 45 16.5 44.1605 16.5 43.125C16.5 42.0895 17.3395 41.25 18.375 41.25C19.4105 41.25 20.25 42.0895 20.25 43.125Z" fill="#F19E38" fill-opacity="0.5"/>
<path d="M28.5 43.125C28.5 44.1605 27.6605 45 26.625 45C25.5895 45 24.75 44.1605 24.75 43.125C24.75 42.0895 25.5895 41.25 26.625 41.25C27.6605 41.25 28.5 42.0895 28.5 43.125Z" fill="#F19E38" fill-opacity="0.5"/>
<path d="M36.75 43.125C36.75 44.1605 35.9105 45 34.875 45C33.8395 45 33 44.1605 33 43.125C33 42.0895 33.8395 41.25 34.875 41.25C35.9105 41.25 36.75 42.0895 36.75 43.125Z" fill="#F19E38" fill-opacity="0.5"/>
<path d="M45 43.125C45 44.1605 44.1605 45 43.125 45C42.0895 45 41.25 44.1605 41.25 43.125C41.25 42.0895 42.0895 41.25 43.125 41.25C44.1605 41.25 45 42.0895 45 43.125Z" fill="#F19E38" fill-opacity="0.5"/>
</svg>
