<svg width="109" height="53" viewBox="0 0 109 53" fill="none" xmlns="http://www.w3.org/2000/svg">
<path d="M6.5 3.62476C6.5 5.35065 5.10089 6.74976 3.375 6.74976C1.64911 6.74976 0.25 5.35065 0.25 3.62476C0.25 1.89887 1.64911 0.499756 3.375 0.499756C5.10089 0.499756 6.5 1.89887 6.5 3.62476Z" fill="#F19E38"/>
<path d="M27.75 3.62476C27.75 5.35065 26.3509 6.74976 24.625 6.74976C22.8991 6.74976 21.5 5.35065 21.5 3.62476C21.5 1.89887 22.8991 0.499756 24.625 0.499756C26.3509 0.499756 27.75 1.89887 27.75 3.62476Z" fill="#F19E38"/>
<path d="M49 3.62476C49 5.35065 47.6009 6.74976 45.875 6.74976C44.1491 6.74976 42.75 5.35065 42.75 3.62476C42.75 1.89887 44.1491 0.499756 45.875 0.499756C47.6009 0.499756 49 1.89887 49 3.62476Z" fill="#F19E38"/>
<path d="M70.25 3.62476C70.25 5.35065 68.8509 6.74976 67.125 6.74976C65.3991 6.74976 64 5.35065 64 3.62476C64 1.89887 65.3991 0.499756 67.125 0.499756C68.8509 0.499756 70.25 1.89887 70.25 3.62476Z" fill="#F19E38"/>
<path d="M91.5 3.62476C91.5 5.35065 90.1009 6.74976 88.375 6.74976C86.6491 6.74976 85.25 5.35065 85.25 3.62476C85.25 1.89887 86.6491 0.499756 88.375 0.499756C90.1009 0.499756 91.5 1.89887 91.5 3.62476Z" fill="#F19E38"/>
<path d="M112.75 3.62476C112.75 5.35065 111.351 6.74976 109.625 6.74976C107.899 6.74976 106.5 5.35065 106.5 3.62476C106.5 1.89887 107.899 0.499756 109.625 0.499756C111.351 0.499756 112.75 1.89887 112.75 3.62476Z" fill="#F19E38"/>
<path d="M6.5 24.8747C6.5 26.6006 5.10089 27.9997 3.375 27.9997C1.64911 27.9997 0.25 26.6006 0.25 24.8747C0.25 23.1488 1.64911 21.7497 3.375 21.7497C5.10089 21.7497 6.5 23.1488 6.5 24.8747Z" fill="#F19E38"/>
<path d="M27.75 24.8747C27.75 26.6006 26.3509 27.9997 24.625 27.9997C22.8991 27.9997 21.5 26.6006 21.5 24.8747C21.5 23.1488 22.8991 21.7497 24.625 21.7497C26.3509 21.7497 27.75 23.1488 27.75 24.8747Z" fill="#F19E38"/>
<path d="M49 24.8747C49 26.6006 47.6009 27.9997 45.875 27.9997C44.1491 27.9997 42.75 26.6006 42.75 24.8747C42.75 23.1488 44.1491 21.7497 45.875 21.7497C47.6009 21.7497 49 23.1488 49 24.8747Z" fill="#F19E38"/>
<path d="M70.25 24.8747C70.25 26.6006 68.8509 27.9997 67.125 27.9997C65.3991 27.9997 64 26.6006 64 24.8747C64 23.1488 65.3991 21.7497 67.125 21.7497C68.8509 21.7497 70.25 23.1488 70.25 24.8747Z" fill="#F19E38"/>
<path d="M91.5 24.8747C91.5 26.6006 90.1009 27.9997 88.375 27.9997C86.6491 27.9997 85.25 26.6006 85.25 24.8747C85.25 23.1488 86.6491 21.7497 88.375 21.7497C90.1009 21.7497 91.5 23.1488 91.5 24.8747Z" fill="#F19E38"/>
<path d="M112.75 24.8747C112.75 26.6006 111.351 27.9997 109.625 27.9997C107.899 27.9997 106.5 26.6006 106.5 24.8747C106.5 23.1488 107.899 21.7497 109.625 21.7497C111.351 21.7497 112.75 23.1488 112.75 24.8747Z" fill="#F19E38"/>
<path d="M6.5 46.1246C6.5 47.8505 5.10089 49.2496 3.375 49.2496C1.64911 49.2496 0.25 47.8505 0.25 46.1246C0.25 44.3987 1.64911 42.9996 3.375 42.9996C5.10089 42.9996 6.5 44.3987 6.5 46.1246Z" fill="#F19E38"/>
<path d="M27.75 46.1246C27.75 47.8505 26.3509 49.2496 24.625 49.2496C22.8991 49.2496 21.5 47.8505 21.5 46.1246C21.5 44.3987 22.8991 42.9996 24.625 42.9996C26.3509 42.9996 27.75 44.3987 27.75 46.1246Z" fill="#F19E38"/>
<path d="M49 46.1246C49 47.8505 47.6009 49.2496 45.875 49.2496C44.1491 49.2496 42.75 47.8505 42.75 46.1246C42.75 44.3987 44.1491 42.9996 45.875 42.9996C47.6009 42.9996 49 44.3987 49 46.1246Z" fill="#F19E38"/>
<path d="M70.25 46.1246C70.25 47.8505 68.8509 49.2496 67.125 49.2496C65.3991 49.2496 64 47.8505 64 46.1246C64 44.3987 65.3991 42.9996 67.125 42.9996C68.8509 42.9996 70.25 44.3987 70.25 46.1246Z" fill="#F19E38"/>
<path d="M91.5 46.1246C91.5 47.8505 90.1009 49.2496 88.375 49.2496C86.6491 49.2496 85.25 47.8505 85.25 46.1246C85.25 44.3987 86.6491 42.9996 88.375 42.9996C90.1009 42.9996 91.5 44.3987 91.5 46.1246Z" fill="#F19E38"/>
<path d="M112.75 46.1246C112.75 47.8505 111.351 49.2496 109.625 49.2496C107.899 49.2496 106.5 47.8505 106.5 46.1246C106.5 44.3987 107.899 42.9996 109.625 42.9996C111.351 42.9996 112.75 44.3987 112.75 46.1246Z" fill="#F19E38"/>
<path d="M6.5 67.3746C6.5 69.1004 5.10089 70.4996 3.375 70.4996C1.64911 70.4996 0.25 69.1004 0.25 67.3746C0.25 65.6487 1.64911 64.2496 3.375 64.2496C5.10089 64.2496 6.5 65.6487 6.5 67.3746Z" fill="#F19E38"/>
<path d="M27.75 67.3746C27.75 69.1004 26.3509 70.4996 24.625 70.4996C22.8991 70.4996 21.5 69.1004 21.5 67.3746C21.5 65.6487 22.8991 64.2496 24.625 64.2496C26.3509 64.2496 27.75 65.6487 27.75 67.3746Z" fill="#F19E38"/>
<path d="M49 67.3746C49 69.1004 47.6009 70.4996 45.875 70.4996C44.1491 70.4996 42.75 69.1004 42.75 67.3746C42.75 65.6487 44.1491 64.2496 45.875 64.2496C47.6009 64.2496 49 65.6487 49 67.3746Z" fill="#F19E38"/>
<path d="M70.25 67.3746C70.25 69.1004 68.8509 70.4996 67.125 70.4996C65.3991 70.4996 64 69.1004 64 67.3746C64 65.6487 65.3991 64.2496 67.125 64.2496C68.8509 64.2496 70.25 65.6487 70.25 67.3746Z" fill="#F19E38"/>
<path d="M91.5 67.3746C91.5 69.1004 90.1009 70.4996 88.375 70.4996C86.6491 70.4996 85.25 69.1004 85.25 67.3746C85.25 65.6487 86.6491 64.2496 88.375 64.2496C90.1009 64.2496 91.5 65.6487 91.5 67.3746Z" fill="#F19E38"/>
<path d="M112.75 67.3746C112.75 69.1004 111.351 70.4996 109.625 70.4996C107.899 70.4996 106.5 69.1004 106.5 67.3746C106.5 65.6487 107.899 64.2496 109.625 64.2496C111.351 64.2496 112.75 65.6487 112.75 67.3746Z" fill="#F19E38"/>
<path d="M6.5 88.6245C6.5 90.3504 5.10089 91.7495 3.375 91.7495C1.64911 91.7495 0.25 90.3504 0.25 88.6245C0.25 86.8986 1.64911 85.4995 3.375 85.4995C5.10089 85.4995 6.5 86.8986 6.5 88.6245Z" fill="#F19E38"/>
<path d="M27.75 88.6245C27.75 90.3504 26.3509 91.7495 24.625 91.7495C22.8991 91.7495 21.5 90.3504 21.5 88.6245C21.5 86.8986 22.8991 85.4995 24.625 85.4995C26.3509 85.4995 27.75 86.8986 27.75 88.6245Z" fill="#F19E38"/>
<path d="M49 88.6245C49 90.3504 47.6009 91.7495 45.875 91.7495C44.1491 91.7495 42.75 90.3504 42.75 88.6245C42.75 86.8986 44.1491 85.4995 45.875 85.4995C47.6009 85.4995 49 86.8986 49 88.6245Z" fill="#F19E38"/>
<path d="M70.25 88.6245C70.25 90.3504 68.8509 91.7495 67.125 91.7495C65.3991 91.7495 64 90.3504 64 88.6245C64 86.8986 65.3991 85.4995 67.125 85.4995C68.8509 85.4995 70.25 86.8986 70.25 88.6245Z" fill="#F19E38"/>
<path d="M91.5 88.6245C91.5 90.3504 90.1009 91.7495 88.375 91.7495C86.6491 91.7495 85.25 90.3504 85.25 88.6245C85.25 86.8986 86.6491 85.4995 88.375 85.4995C90.1009 85.4995 91.5 86.8986 91.5 88.6245Z" fill="#F19E38"/>
<path d="M112.75 88.6245C112.75 90.3504 111.351 91.7495 109.625 91.7495C107.899 91.7495 106.5 90.3504 106.5 88.6245C106.5 86.8986 107.899 85.4995 109.625 85.4995C111.351 85.4995 112.75 86.8986 112.75 88.6245Z" fill="#F19E38"/>
<path d="M6.5 109.874C6.5 111.6 5.10089 112.999 3.375 112.999C1.64911 112.999 0.25 111.6 0.25 109.874C0.25 108.149 1.64911 106.749 3.375 106.749C5.10089 106.749 6.5 108.149 6.5 109.874Z" fill="#F19E38"/>
<path d="M27.75 109.874C27.75 111.6 26.3509 112.999 24.625 112.999C22.8991 112.999 21.5 111.6 21.5 109.874C21.5 108.149 22.8991 106.749 24.625 106.749C26.3509 106.749 27.75 108.149 27.75 109.874Z" fill="#F19E38"/>
<path d="M49 109.874C49 111.6 47.6009 112.999 45.875 112.999C44.1491 112.999 42.75 111.6 42.75 109.874C42.75 108.149 44.1491 106.749 45.875 106.749C47.6009 106.749 49 108.149 49 109.874Z" fill="#F19E38"/>
<path d="M70.25 109.874C70.25 111.6 68.8509 112.999 67.125 112.999C65.3991 112.999 64 111.6 64 109.874C64 108.149 65.3991 106.749 67.125 106.749C68.8509 106.749 70.25 108.149 70.25 109.874Z" fill="#F19E38"/>
<path d="M91.5 109.874C91.5 111.6 90.1009 112.999 88.375 112.999C86.6491 112.999 85.25 111.6 85.25 109.874C85.25 108.149 86.6491 106.749 88.375 106.749C90.1009 106.749 91.5 108.149 91.5 109.874Z" fill="#F19E38"/>
<path d="M112.75 109.874C112.75 111.6 111.351 112.999 109.625 112.999C107.899 112.999 106.5 111.6 106.5 109.874C106.5 108.149 107.899 106.749 109.625 106.749C111.351 106.749 112.75 108.149 112.75 109.874Z" fill="#F19E38"/>
</svg>
