<svg width="35" height="34" viewBox="0 0 35 34" fill="none" xmlns="http://www.w3.org/2000/svg">
<path d="M31.3671 0H3.54892C1.84119 0 0.458008 1.38319 0.458008 3.09092V30.9092C0.458008 32.6169 1.84119 34.0001 3.54892 34.0001H19.0035V20.091H14.3671V15.4546H19.0035V12.9649C19.0035 8.25121 21.3 6.18184 25.2177 6.18184C27.0939 6.18184 28.0861 6.32093 28.5559 6.38429V10.8182H25.8838C24.2209 10.8182 23.6398 11.696 23.6398 13.4733V15.4546H28.5142L27.8527 20.091H23.6398V34.0001H31.3671C33.0748 34.0001 34.458 32.6169 34.458 30.9092V3.09092C34.458 1.38319 33.0733 0 31.3671 0Z" fill="black"/>
</svg>
