<svg width="1440" height="458" viewBox="0 0 1440 458" fill="none" xmlns="http://www.w3.org/2000/svg">
<path d="M229 17.7483C204.656 12.1907 192.396 2.18306 167.5 0.248298C134.398 -2.32424 117.201 15.9339 84 16.2483C49.072 16.579 -4 0.248298 -4 0.248298V466H1445V401V85.5C1445 85.5 1475.5 3.28571 1445 12C1414.5 20.7143 1356.5 32.7478 1346.5 31.748C1336.5 30.7483 1289 26.2483 1270.5 21.748C1252 17.2478 1192.92 10.6001 1138 21.748C1105.56 28.3319 1058.04 33.6936 1025.5 39.748C980.964 48.035 960.29 53.0158 915 54C876.983 54.8261 847.482 36.0953 803 39.748C765.126 42.8581 727.729 53.8392 684.5 57.748C639.869 61.7837 620.751 57.0306 597.5 54C571.78 50.6476 549.457 45 507 45C426.161 45 453.881 38.9816 393 32.2483C329.094 25.1804 291.683 32.0583 229 17.7483Z" fill="#F19E38"/>
</svg>
