<svg width="1440" height="889" viewBox="0 0 1440 889" fill="none" xmlns="http://www.w3.org/2000/svg">
<g clip-path="url(#clip0_1_10741)">
<rect width="1446" height="889" transform="translate(-3)" fill="white"/>
<rect width="1438" height="852" transform="translate(1 54)" fill="white"/>
<path d="M1275 187.5C1275 201.031 1264.03 212 1250.5 212C1236.97 212 1226 201.031 1226 187.5C1226 173.969 1236.97 163 1250.5 163C1264.03 163 1275 173.969 1275 187.5Z" fill="#F19E38"/>
<path fill-rule="evenodd" clip-rule="evenodd" d="M113.764 227.516C125.232 227.516 134.529 218.446 134.529 207.258C134.529 196.07 125.232 187 113.764 187C102.296 187 93 196.07 93 207.258C93 218.446 102.296 227.516 113.764 227.516ZM113.764 223.464C123.089 223.464 130.477 216.115 130.477 207.258C130.477 198.401 123.089 191.052 113.764 191.052C104.439 191.052 97.0516 198.401 97.0516 207.258C97.0516 216.115 104.439 223.464 113.764 223.464Z" fill="#F19E38"/>
<path d="M954.281 212.384C954.34 211.872 955.06 211.872 955.119 212.384L955.613 216.682C956.251 222.231 960.489 226.605 965.864 227.264L970.027 227.774C970.524 227.835 970.524 228.578 970.027 228.639L965.864 229.149C960.489 229.807 956.251 234.182 955.613 239.731L955.119 244.028C955.06 244.541 954.34 244.541 954.281 244.028L953.787 239.731C953.149 234.182 948.911 229.807 943.535 229.149L939.372 228.639C938.876 228.578 938.876 227.835 939.372 227.774L943.535 227.264C948.911 226.605 953.149 222.231 953.787 216.682L954.281 212.384Z" fill="#F19E38"/>
<path d="M1173.34 795.288C1173.38 794.904 1173.92 794.904 1173.96 795.288L1174.33 798.511C1174.8 802.673 1177.94 805.954 1181.93 806.448L1185.02 806.83C1185.39 806.876 1185.39 807.433 1185.02 807.479L1181.93 807.862C1177.94 808.355 1174.8 811.637 1174.33 815.798L1173.96 819.021C1173.92 819.405 1173.38 819.405 1173.34 819.021L1172.97 815.798C1172.5 811.637 1169.35 808.355 1165.36 807.862L1162.28 807.479C1161.91 807.433 1161.91 806.876 1162.28 806.83L1165.36 806.448C1169.35 805.954 1172.5 802.673 1172.97 798.511L1173.34 795.288Z" fill="#F19E38"/>
<path d="M437.622 839.232C442.937 839.232 447.245 835.151 447.245 830.116C447.245 825.081 442.937 821 437.622 821C432.308 821 428 825.081 428 830.116C428 835.151 432.308 839.232 437.622 839.232Z" fill="#F19E38"/>
<path fill-rule="evenodd" clip-rule="evenodd" d="M359.387 346.687C359.387 354.798 352.584 361.374 344.193 361.374C335.802 361.374 329 354.798 329 346.687C329 338.576 335.802 332 344.193 332C352.584 332 359.387 338.576 359.387 346.687ZM355.335 346.687C355.335 352.432 350.477 357.322 344.193 357.322C337.909 357.322 333.052 352.432 333.052 346.687C333.052 340.942 337.909 336.052 344.193 336.052C350.477 336.052 355.335 340.942 355.335 346.687Z" fill="#F19E38"/>
<path fill-rule="evenodd" clip-rule="evenodd" d="M167.284 742.567C154.977 742.567 145 732.591 145 720.284C145 707.977 154.977 698 167.284 698C179.591 698 189.567 707.977 189.567 720.284C189.567 732.591 179.591 742.567 167.284 742.567ZM167.284 738.516C157.214 738.516 149.052 730.353 149.052 720.284C149.052 710.214 157.214 702.052 167.284 702.052C177.353 702.052 185.516 710.214 185.516 720.284C185.516 730.353 177.353 738.516 167.284 738.516Z" fill="#F19E38"/>
<path d="M519.959 244.288C519.915 243.904 519.381 243.904 519.337 244.288L518.971 247.511C518.498 251.673 515.353 254.954 511.365 255.448L508.276 255.83C507.908 255.876 507.908 256.433 508.276 256.479L511.365 256.861C515.353 257.355 518.498 260.637 518.971 264.798L519.337 268.021C519.381 268.405 519.915 268.405 519.959 268.021L520.326 264.798C520.799 260.637 523.943 257.355 527.932 256.861L531.02 256.479C531.389 256.433 531.389 255.876 531.02 255.83L527.932 255.448C523.943 254.954 520.799 251.673 520.326 247.511L519.959 244.288Z" fill="#F19E38"/>
<path d="M1136.5 706C1141.19 706 1145 702.194 1145 697.5C1145 692.806 1141.19 689 1136.5 689C1131.81 689 1128 692.806 1128 697.5C1128 702.194 1131.81 706 1136.5 706Z" fill="#F19E38"/>
</g>
<defs>
<clipPath id="clip0_1_10741">
<rect width="1446" height="889" fill="white" transform="translate(-3)"/>
</clipPath>
</defs>
</svg>
