<svg width="15" height="14" viewBox="0 0 15 14" fill="none" xmlns="http://www.w3.org/2000/svg">
<path d="M13.6059 4.115C13.0548 2.94693 12.1821 1.96607 11.0826 1.27788C9.55326 0.323388 7.74183 0.0201651 5.98577 0.42622C4.22972 0.829639 2.7347 1.89488 1.78021 3.42417C0.82308 4.95347 0.519857 6.76227 0.925912 8.52096C1.33197 10.277 2.3972 11.772 3.92386 12.7265C4.99964 13.3989 6.23363 13.7549 7.49661 13.7549H7.57835C8.83607 13.739 10.0595 13.3752 11.1195 12.7054C11.428 12.5103 11.5176 12.1043 11.3225 11.7958C11.1274 11.4873 10.7213 11.3976 10.4128 11.5927C9.56117 12.1333 8.57503 12.4259 7.56253 12.4391C6.52367 12.4523 5.50853 12.1649 4.62259 11.6138C3.39124 10.8439 2.53431 9.64157 2.20999 8.22828C1.88568 6.815 2.12826 5.35953 2.89818 4.12818C4.48548 1.58902 7.84466 0.813819 10.3838 2.40113C11.2698 2.95484 11.9711 3.74322 12.4141 4.68189C12.8465 5.59683 13.0153 6.61197 12.9019 7.61393C12.8623 7.97516 13.1207 8.30211 13.4846 8.34166C13.8458 8.38121 14.1728 8.12282 14.2123 7.75895C14.3521 6.51178 14.1411 5.25142 13.6059 4.115Z" fill="#C4C4C4"/>
</svg>
