<svg width="35" height="34" viewBox="0 0 35 34" fill="none" xmlns="http://www.w3.org/2000/svg">
<path d="M23.357 17C23.357 18.0759 23.0379 19.1277 22.4402 20.0223C21.8424 20.9169 20.9928 21.6141 19.9988 22.0259C19.0047 22.4376 17.9109 22.5454 16.8557 22.3354C15.8004 22.1255 14.8311 21.6074 14.0703 20.8466C13.3095 20.0858 12.7914 19.1165 12.5815 18.0613C12.3716 17.006 12.4793 15.9122 12.8911 14.9182C13.3028 13.9242 14.0001 13.0745 14.8947 12.4768C15.7893 11.879 16.841 11.56 17.917 11.56C19.3592 11.5616 20.742 12.1353 21.7618 13.1551C22.7816 14.175 23.3553 15.5577 23.357 17ZM34.917 9.51999V24.48C34.9141 27.004 33.9102 29.4237 32.1255 31.2085C30.3407 32.9932 27.9209 33.9971 25.397 34H10.437C7.913 33.9971 5.49322 32.9932 3.70849 31.2085C1.92377 29.4237 0.919851 27.004 0.916992 24.48V9.51999C0.919851 6.99601 1.92377 4.57622 3.70849 2.7915C5.49322 1.00677 7.913 0.0028585 10.437 0H25.397C27.9209 0.0028585 30.3407 1.00677 32.1255 2.7915C33.9102 4.57622 34.9141 6.99601 34.917 9.51999ZM26.077 17C26.077 15.3861 25.5984 13.8084 24.7018 12.4665C23.8051 11.1246 22.5307 10.0787 21.0397 9.46113C19.5486 8.84352 17.9079 8.68193 16.325 8.99678C14.7422 9.31164 13.2882 10.0888 12.147 11.23C11.0058 12.3712 10.2286 13.8252 9.91378 15.408C9.59892 16.9909 9.76052 18.6316 10.3781 20.1227C10.9957 21.6137 12.0416 22.8881 13.3835 23.7848C14.7254 24.6814 16.3031 25.16 17.917 25.16C20.0804 25.1575 22.1545 24.297 23.6843 22.7673C25.214 21.2375 26.0745 19.1634 26.077 17ZM28.797 8.15999C28.797 7.75652 28.6773 7.36211 28.4532 7.02663C28.229 6.69115 27.9104 6.42968 27.5376 6.27528C27.1649 6.12088 26.7547 6.08048 26.359 6.15919C25.9633 6.23791 25.5998 6.4322 25.3145 6.71749C25.0292 7.00279 24.8349 7.36629 24.7562 7.76201C24.6775 8.15773 24.7179 8.5679 24.8723 8.94067C25.0267 9.31343 25.2881 9.63203 25.6236 9.85619C25.9591 10.0803 26.3535 10.2 26.757 10.2C27.298 10.2 27.8169 9.98506 28.1995 9.60249C28.582 9.21991 28.797 8.70103 28.797 8.15999Z" fill="black"/>
</svg>
