<svg width="49" height="39" viewBox="0 0 49 39" fill="none" xmlns="http://www.w3.org/2000/svg">
<path d="M15.7282 17.8014C17.5949 18.6227 19.0509 19.8547 20.0962 21.4974C21.1416 23.1401 21.6642 25.0814 21.6642 27.3214C21.6642 30.5321 20.6562 33.1454 18.6402 35.1614C16.6242 37.1027 14.0482 38.0734 10.9122 38.0734C7.77623 38.0734 5.1629 37.0654 3.07223 35.0494C1.05623 33.0334 0.0482346 30.4574 0.0482346 27.3214C0.0482346 25.8281 0.234901 24.3347 0.608234 22.8414C0.981568 21.3481 1.8029 19.1081 3.07223 16.1214L9.56823 -0.00659275H20.6562L15.7282 17.8014ZM42.1602 17.8014C44.0269 18.6227 45.4829 19.8547 46.5282 21.4974C47.5736 23.1401 48.0962 25.0814 48.0962 27.3214C48.0962 30.5321 47.0882 33.1454 45.0722 35.1614C43.0562 37.1027 40.4802 38.0734 37.3442 38.0734C34.2082 38.0734 31.5949 37.0654 29.5042 35.0494C27.4882 33.0334 26.4802 30.4574 26.4802 27.3214C26.4802 25.8281 26.6669 24.3347 27.0402 22.8414C27.4136 21.3481 28.2349 19.1081 29.5042 16.1214L36.0002 -0.00659275H47.0882L42.1602 17.8014Z" fill="#FDF3E2"/>
</svg>
