<svg width="43" height="34" viewBox="0 0 43 34" fill="none" xmlns="http://www.w3.org/2000/svg">
<path d="M14.5788 16.34C16.1986 17.0527 17.462 18.1217 18.3691 19.5471C19.2762 20.9726 19.7297 22.6571 19.7297 24.6009C19.7297 27.3869 18.855 29.6546 17.1057 31.404C15.3563 33.0885 13.121 33.9308 10.3998 33.9308C7.67854 33.9308 5.41084 33.0561 3.59668 31.3068C1.84732 29.5574 0.972634 27.3221 0.972634 24.6009C0.972634 23.305 1.13461 22.0092 1.45857 20.7134C1.78253 19.4176 2.49523 17.4738 3.59668 14.8822L9.23353 0.887239H18.855L14.5788 16.34ZM37.515 16.34C39.1347 17.0527 40.3982 18.1217 41.3052 19.5471C42.2123 20.9726 42.6659 22.6571 42.6659 24.6009C42.6659 27.3869 41.7912 29.6546 40.0418 31.404C38.2924 33.0885 36.0571 33.9308 33.3359 33.9308C30.6147 33.9308 28.347 33.0561 26.5328 31.3068C24.7835 29.5574 23.9088 27.3221 23.9088 24.6009C23.9088 23.305 24.0707 22.0092 24.3947 20.7134C24.7187 19.4176 25.4314 17.4738 26.5328 14.8822L32.1697 0.887239H41.7912L37.515 16.34Z" fill="#FF8924"/>
</svg>
