<svg width="245" height="185" viewBox="0 0 245 185" fill="none" xmlns="http://www.w3.org/2000/svg">
<g opacity="0.25">
<path d="M9.25685 6.98889L7.12065 0L4.98446 6.98889L0 12.3333L7.12065 10.6889L14.2413 12.3333L9.25685 6.98889Z" fill="url(#paint0_linear_1_13388)"/>
<path d="M42.1457 6.98889L40.0095 0L37.8734 6.98889L32.8889 12.3333L40.0095 10.6889L47.1302 12.3333L42.1457 6.98889Z" fill="url(#paint1_linear_1_13388)"/>
<path d="M72.8984 0L75.0346 6.98889L80.0191 12.3333L72.8984 10.6889L65.7778 12.3333L70.7622 6.98889L72.8984 0Z" fill="url(#paint2_linear_1_13388)"/>
<path d="M107.924 6.98889L105.787 0L103.651 6.98889L98.6667 12.3333L105.787 10.6889L112.908 12.3333L107.924 6.98889Z" fill="url(#paint3_linear_1_13388)"/>
<path d="M138.676 0L140.812 6.98889L145.797 12.3333L138.676 10.6889L131.556 12.3333L136.54 6.98889L138.676 0Z" fill="url(#paint4_linear_1_13388)"/>
<path d="M173.701 6.98889L171.565 0L169.429 6.98889L164.444 12.3333L171.565 10.6889L178.686 12.3333L173.701 6.98889Z" fill="url(#paint5_linear_1_13388)"/>
<path d="M204.454 0L206.59 6.98889L211.575 12.3333L204.454 10.6889L197.333 12.3333L202.318 6.98889L204.454 0Z" fill="url(#paint6_linear_1_13388)"/>
<path d="M239.479 6.98889L237.343 0L235.207 6.98889L230.222 12.3333L237.343 10.6889L244.464 12.3333L239.479 6.98889Z" fill="url(#paint7_linear_1_13388)"/>
<path d="M7.12065 24.6667L9.25685 31.6556L14.2413 37L7.12065 35.3556L0 37L4.98446 31.6556L7.12065 24.6667Z" fill="url(#paint8_linear_1_13388)"/>
<path d="M42.1457 31.6556L40.0095 24.6667L37.8734 31.6556L32.8889 37L40.0095 35.3556L47.1302 37L42.1457 31.6556Z" fill="url(#paint9_linear_1_13388)"/>
<path d="M72.8984 24.6667L75.0346 31.6556L80.0191 37L72.8984 35.3556L65.7778 37L70.7622 31.6556L72.8984 24.6667Z" fill="url(#paint10_linear_1_13388)"/>
<path d="M107.924 31.6556L105.787 24.6667L103.651 31.6556L98.6667 37L105.787 35.3556L112.908 37L107.924 31.6556Z" fill="url(#paint11_linear_1_13388)"/>
<path d="M138.676 24.6667L140.812 31.6556L145.797 37L138.676 35.3556L131.556 37L136.54 31.6556L138.676 24.6667Z" fill="url(#paint12_linear_1_13388)"/>
<path d="M173.701 31.6556L171.565 24.6667L169.429 31.6556L164.444 37L171.565 35.3556L178.686 37L173.701 31.6556Z" fill="url(#paint13_linear_1_13388)"/>
<path d="M204.454 24.6667L206.59 31.6556L211.575 37L204.454 35.3556L197.333 37L202.318 31.6556L204.454 24.6667Z" fill="url(#paint14_linear_1_13388)"/>
<path d="M239.479 31.6556L237.343 24.6667L235.207 31.6556L230.222 37L237.343 35.3556L244.464 37L239.479 31.6556Z" fill="url(#paint15_linear_1_13388)"/>
<path d="M7.12065 49.3333L9.25685 56.3222L14.2413 61.6667L7.12065 60.0222L0 61.6667L4.98446 56.3222L7.12065 49.3333Z" fill="url(#paint16_linear_1_13388)"/>
<path d="M42.1457 56.3222L40.0095 49.3333L37.8734 56.3222L32.8889 61.6667L40.0095 60.0222L47.1302 61.6667L42.1457 56.3222Z" fill="url(#paint17_linear_1_13388)"/>
<path d="M72.8984 49.3333L75.0346 56.3222L80.0191 61.6667L72.8984 60.0222L65.7778 61.6667L70.7622 56.3222L72.8984 49.3333Z" fill="url(#paint18_linear_1_13388)"/>
<path d="M107.924 56.3222L105.787 49.3333L103.651 56.3222L98.6667 61.6667L105.787 60.0222L112.908 61.6667L107.924 56.3222Z" fill="url(#paint19_linear_1_13388)"/>
<path d="M138.676 49.3333L140.812 56.3222L145.797 61.6667L138.676 60.0222L131.556 61.6667L136.54 56.3222L138.676 49.3333Z" fill="url(#paint20_linear_1_13388)"/>
<path d="M173.701 56.3222L171.565 49.3333L169.429 56.3222L164.444 61.6667L171.565 60.0222L178.686 61.6667L173.701 56.3222Z" fill="url(#paint21_linear_1_13388)"/>
<path d="M204.454 49.3333L206.59 56.3222L211.575 61.6667L204.454 60.0222L197.333 61.6667L202.318 56.3222L204.454 49.3333Z" fill="url(#paint22_linear_1_13388)"/>
<path d="M239.479 56.3222L237.343 49.3333L235.207 56.3222L230.222 61.6667L237.343 60.0222L244.464 61.6667L239.479 56.3222Z" fill="url(#paint23_linear_1_13388)"/>
<path d="M7.12065 74L9.25685 80.9889L14.2413 86.3333L7.12065 84.6889L0 86.3333L4.98446 80.9889L7.12065 74Z" fill="url(#paint24_linear_1_13388)"/>
<path d="M42.1457 80.9889L40.0095 74L37.8734 80.9889L32.8889 86.3333L40.0095 84.6889L47.1302 86.3333L42.1457 80.9889Z" fill="url(#paint25_linear_1_13388)"/>
<path d="M72.8984 74L75.0346 80.9889L80.0191 86.3333L72.8984 84.6889L65.7778 86.3333L70.7622 80.9889L72.8984 74Z" fill="url(#paint26_linear_1_13388)"/>
<path d="M107.924 80.9889L105.787 74L103.651 80.9889L98.6667 86.3333L105.787 84.6889L112.908 86.3333L107.924 80.9889Z" fill="url(#paint27_linear_1_13388)"/>
<path d="M138.676 74L140.812 80.9889L145.797 86.3333L138.676 84.6889L131.556 86.3333L136.54 80.9889L138.676 74Z" fill="url(#paint28_linear_1_13388)"/>
<path d="M173.701 80.9889L171.565 74L169.429 80.9889L164.444 86.3333L171.565 84.6889L178.686 86.3333L173.701 80.9889Z" fill="url(#paint29_linear_1_13388)"/>
<path d="M204.454 74L206.59 80.9889L211.575 86.3333L204.454 84.6889L197.333 86.3333L202.318 80.9889L204.454 74Z" fill="url(#paint30_linear_1_13388)"/>
<path d="M239.479 80.9889L237.343 74L235.207 80.9889L230.222 86.3333L237.343 84.6889L244.464 86.3333L239.479 80.9889Z" fill="url(#paint31_linear_1_13388)"/>
<path d="M7.12065 98.6667L9.25685 105.656L14.2413 111L7.12065 109.356L0 111L4.98446 105.656L7.12065 98.6667Z" fill="url(#paint32_linear_1_13388)"/>
<path d="M42.1457 105.656L40.0095 98.6667L37.8734 105.656L32.8889 111L40.0095 109.356L47.1302 111L42.1457 105.656Z" fill="url(#paint33_linear_1_13388)"/>
<path d="M72.8984 98.6667L75.0346 105.656L80.0191 111L72.8984 109.356L65.7778 111L70.7622 105.656L72.8984 98.6667Z" fill="url(#paint34_linear_1_13388)"/>
<path d="M107.924 105.656L105.787 98.6667L103.651 105.656L98.6667 111L105.787 109.356L112.908 111L107.924 105.656Z" fill="url(#paint35_linear_1_13388)"/>
<path d="M138.676 98.6667L140.812 105.656L145.797 111L138.676 109.356L131.556 111L136.54 105.656L138.676 98.6667Z" fill="url(#paint36_linear_1_13388)"/>
<path d="M173.701 105.656L171.565 98.6667L169.429 105.656L164.444 111L171.565 109.356L178.686 111L173.701 105.656Z" fill="url(#paint37_linear_1_13388)"/>
<path d="M204.454 98.6667L206.59 105.656L211.575 111L204.454 109.356L197.333 111L202.318 105.656L204.454 98.6667Z" fill="url(#paint38_linear_1_13388)"/>
<path d="M239.479 105.656L237.343 98.6667L235.207 105.656L230.222 111L237.343 109.356L244.464 111L239.479 105.656Z" fill="url(#paint39_linear_1_13388)"/>
<path d="M7.12065 123.333L9.25685 130.322L14.2413 135.667L7.12065 134.022L0 135.667L4.98446 130.322L7.12065 123.333Z" fill="url(#paint40_linear_1_13388)"/>
<path d="M42.1457 130.322L40.0095 123.333L37.8734 130.322L32.8889 135.667L40.0095 134.022L47.1302 135.667L42.1457 130.322Z" fill="url(#paint41_linear_1_13388)"/>
<path d="M72.8984 123.333L75.0346 130.322L80.0191 135.667L72.8984 134.022L65.7778 135.667L70.7622 130.322L72.8984 123.333Z" fill="url(#paint42_linear_1_13388)"/>
<path d="M107.924 130.322L105.787 123.333L103.651 130.322L98.6667 135.667L105.787 134.022L112.908 135.667L107.924 130.322Z" fill="url(#paint43_linear_1_13388)"/>
<path d="M138.676 123.333L140.812 130.322L145.797 135.667L138.676 134.022L131.556 135.667L136.54 130.322L138.676 123.333Z" fill="url(#paint44_linear_1_13388)"/>
<path d="M173.701 130.322L171.565 123.333L169.429 130.322L164.444 135.667L171.565 134.022L178.686 135.667L173.701 130.322Z" fill="url(#paint45_linear_1_13388)"/>
<path d="M204.454 123.333L206.59 130.322L211.575 135.667L204.454 134.022L197.333 135.667L202.318 130.322L204.454 123.333Z" fill="url(#paint46_linear_1_13388)"/>
<path d="M239.479 130.322L237.343 123.333L235.207 130.322L230.222 135.667L237.343 134.022L244.464 135.667L239.479 130.322Z" fill="url(#paint47_linear_1_13388)"/>
<path d="M7.12065 148L9.25685 154.989L14.2413 160.333L7.12065 158.689L0 160.333L4.98446 154.989L7.12065 148Z" fill="url(#paint48_linear_1_13388)"/>
<path d="M42.1457 154.989L40.0095 148L37.8734 154.989L32.8889 160.333L40.0095 158.689L47.1302 160.333L42.1457 154.989Z" fill="url(#paint49_linear_1_13388)"/>
<path d="M72.8984 148L75.0346 154.989L80.0191 160.333L72.8984 158.689L65.7778 160.333L70.7622 154.989L72.8984 148Z" fill="url(#paint50_linear_1_13388)"/>
<path d="M107.924 154.989L105.787 148L103.651 154.989L98.6667 160.333L105.787 158.689L112.908 160.333L107.924 154.989Z" fill="url(#paint51_linear_1_13388)"/>
<path d="M138.676 148L140.812 154.989L145.797 160.333L138.676 158.689L131.556 160.333L136.54 154.989L138.676 148Z" fill="url(#paint52_linear_1_13388)"/>
<path d="M173.701 154.989L171.565 148L169.429 154.989L164.444 160.333L171.565 158.689L178.686 160.333L173.701 154.989Z" fill="url(#paint53_linear_1_13388)"/>
<path d="M204.454 148L206.59 154.989L211.575 160.333L204.454 158.689L197.333 160.333L202.318 154.989L204.454 148Z" fill="url(#paint54_linear_1_13388)"/>
<path d="M239.479 154.989L237.343 148L235.207 154.989L230.222 160.333L237.343 158.689L244.464 160.333L239.479 154.989Z" fill="url(#paint55_linear_1_13388)"/>
<path d="M7.12065 172.667L9.25685 179.656L14.2413 185L7.12065 183.356L0 185L4.98446 179.656L7.12065 172.667Z" fill="url(#paint56_linear_1_13388)"/>
<path d="M42.1457 179.656L40.0095 172.667L37.8734 179.656L32.8889 185L40.0095 183.356L47.1302 185L42.1457 179.656Z" fill="url(#paint57_linear_1_13388)"/>
<path d="M72.8984 172.667L75.0346 179.656L80.0191 185L72.8984 183.356L65.7778 185L70.7622 179.656L72.8984 172.667Z" fill="url(#paint58_linear_1_13388)"/>
<path d="M107.924 179.656L105.787 172.667L103.651 179.656L98.6667 185L105.787 183.356L112.908 185L107.924 179.656Z" fill="url(#paint59_linear_1_13388)"/>
<path d="M138.676 172.667L140.812 179.656L145.797 185L138.676 183.356L131.556 185L136.54 179.656L138.676 172.667Z" fill="url(#paint60_linear_1_13388)"/>
<path d="M173.701 179.656L171.565 172.667L169.429 179.656L164.444 185L171.565 183.356L178.686 185L173.701 179.656Z" fill="url(#paint61_linear_1_13388)"/>
<path d="M204.454 172.667L206.59 179.656L211.575 185L204.454 183.356L197.333 185L202.318 179.656L204.454 172.667Z" fill="url(#paint62_linear_1_13388)"/>
<path d="M239.479 179.656L237.343 172.667L235.207 179.656L230.222 185L237.343 183.356L244.464 185L239.479 179.656Z" fill="url(#paint63_linear_1_13388)"/>
</g>
<defs>
<linearGradient id="paint0_linear_1_13388" x1="0" y1="0" x2="210" y2="151" gradientUnits="userSpaceOnUse">
<stop stop-color="#F19E38" stop-opacity="0.2"/>
<stop offset="1" stop-color="#F19E38"/>
</linearGradient>
<linearGradient id="paint1_linear_1_13388" x1="0" y1="0" x2="210" y2="151" gradientUnits="userSpaceOnUse">
<stop stop-color="#F19E38" stop-opacity="0.2"/>
<stop offset="1" stop-color="#F19E38"/>
</linearGradient>
<linearGradient id="paint2_linear_1_13388" x1="0" y1="0" x2="210" y2="151" gradientUnits="userSpaceOnUse">
<stop stop-color="#F19E38" stop-opacity="0.2"/>
<stop offset="1" stop-color="#F19E38"/>
</linearGradient>
<linearGradient id="paint3_linear_1_13388" x1="0" y1="0" x2="210" y2="151" gradientUnits="userSpaceOnUse">
<stop stop-color="#F19E38" stop-opacity="0.2"/>
<stop offset="1" stop-color="#F19E38"/>
</linearGradient>
<linearGradient id="paint4_linear_1_13388" x1="0" y1="0" x2="210" y2="151" gradientUnits="userSpaceOnUse">
<stop stop-color="#F19E38" stop-opacity="0.2"/>
<stop offset="1" stop-color="#F19E38"/>
</linearGradient>
<linearGradient id="paint5_linear_1_13388" x1="0" y1="0" x2="210" y2="151" gradientUnits="userSpaceOnUse">
<stop stop-color="#F19E38" stop-opacity="0.2"/>
<stop offset="1" stop-color="#F19E38"/>
</linearGradient>
<linearGradient id="paint6_linear_1_13388" x1="0" y1="0" x2="210" y2="151" gradientUnits="userSpaceOnUse">
<stop stop-color="#F19E38" stop-opacity="0.2"/>
<stop offset="1" stop-color="#F19E38"/>
</linearGradient>
<linearGradient id="paint7_linear_1_13388" x1="0" y1="0" x2="210" y2="151" gradientUnits="userSpaceOnUse">
<stop stop-color="#F19E38" stop-opacity="0.2"/>
<stop offset="1" stop-color="#F19E38"/>
</linearGradient>
<linearGradient id="paint8_linear_1_13388" x1="0" y1="0" x2="210" y2="151" gradientUnits="userSpaceOnUse">
<stop stop-color="#F19E38" stop-opacity="0.2"/>
<stop offset="1" stop-color="#F19E38"/>
</linearGradient>
<linearGradient id="paint9_linear_1_13388" x1="0" y1="0" x2="210" y2="151" gradientUnits="userSpaceOnUse">
<stop stop-color="#F19E38" stop-opacity="0.2"/>
<stop offset="1" stop-color="#F19E38"/>
</linearGradient>
<linearGradient id="paint10_linear_1_13388" x1="0" y1="0" x2="210" y2="151" gradientUnits="userSpaceOnUse">
<stop stop-color="#F19E38" stop-opacity="0.2"/>
<stop offset="1" stop-color="#F19E38"/>
</linearGradient>
<linearGradient id="paint11_linear_1_13388" x1="0" y1="0" x2="210" y2="151" gradientUnits="userSpaceOnUse">
<stop stop-color="#F19E38" stop-opacity="0.2"/>
<stop offset="1" stop-color="#F19E38"/>
</linearGradient>
<linearGradient id="paint12_linear_1_13388" x1="0" y1="0" x2="210" y2="151" gradientUnits="userSpaceOnUse">
<stop stop-color="#F19E38" stop-opacity="0.2"/>
<stop offset="1" stop-color="#F19E38"/>
</linearGradient>
<linearGradient id="paint13_linear_1_13388" x1="0" y1="0" x2="210" y2="151" gradientUnits="userSpaceOnUse">
<stop stop-color="#F19E38" stop-opacity="0.2"/>
<stop offset="1" stop-color="#F19E38"/>
</linearGradient>
<linearGradient id="paint14_linear_1_13388" x1="0" y1="0" x2="210" y2="151" gradientUnits="userSpaceOnUse">
<stop stop-color="#F19E38" stop-opacity="0.2"/>
<stop offset="1" stop-color="#F19E38"/>
</linearGradient>
<linearGradient id="paint15_linear_1_13388" x1="0" y1="0" x2="210" y2="151" gradientUnits="userSpaceOnUse">
<stop stop-color="#F19E38" stop-opacity="0.2"/>
<stop offset="1" stop-color="#F19E38"/>
</linearGradient>
<linearGradient id="paint16_linear_1_13388" x1="0" y1="0" x2="210" y2="151" gradientUnits="userSpaceOnUse">
<stop stop-color="#F19E38" stop-opacity="0.2"/>
<stop offset="1" stop-color="#F19E38"/>
</linearGradient>
<linearGradient id="paint17_linear_1_13388" x1="0" y1="0" x2="210" y2="151" gradientUnits="userSpaceOnUse">
<stop stop-color="#F19E38" stop-opacity="0.2"/>
<stop offset="1" stop-color="#F19E38"/>
</linearGradient>
<linearGradient id="paint18_linear_1_13388" x1="0" y1="0" x2="210" y2="151" gradientUnits="userSpaceOnUse">
<stop stop-color="#F19E38" stop-opacity="0.2"/>
<stop offset="1" stop-color="#F19E38"/>
</linearGradient>
<linearGradient id="paint19_linear_1_13388" x1="0" y1="0" x2="210" y2="151" gradientUnits="userSpaceOnUse">
<stop stop-color="#F19E38" stop-opacity="0.2"/>
<stop offset="1" stop-color="#F19E38"/>
</linearGradient>
<linearGradient id="paint20_linear_1_13388" x1="0" y1="0" x2="210" y2="151" gradientUnits="userSpaceOnUse">
<stop stop-color="#F19E38" stop-opacity="0.2"/>
<stop offset="1" stop-color="#F19E38"/>
</linearGradient>
<linearGradient id="paint21_linear_1_13388" x1="0" y1="0" x2="210" y2="151" gradientUnits="userSpaceOnUse">
<stop stop-color="#F19E38" stop-opacity="0.2"/>
<stop offset="1" stop-color="#F19E38"/>
</linearGradient>
<linearGradient id="paint22_linear_1_13388" x1="0" y1="0" x2="210" y2="151" gradientUnits="userSpaceOnUse">
<stop stop-color="#F19E38" stop-opacity="0.2"/>
<stop offset="1" stop-color="#F19E38"/>
</linearGradient>
<linearGradient id="paint23_linear_1_13388" x1="0" y1="0" x2="210" y2="151" gradientUnits="userSpaceOnUse">
<stop stop-color="#F19E38" stop-opacity="0.2"/>
<stop offset="1" stop-color="#F19E38"/>
</linearGradient>
<linearGradient id="paint24_linear_1_13388" x1="0" y1="0" x2="210" y2="151" gradientUnits="userSpaceOnUse">
<stop stop-color="#F19E38" stop-opacity="0.2"/>
<stop offset="1" stop-color="#F19E38"/>
</linearGradient>
<linearGradient id="paint25_linear_1_13388" x1="0" y1="0" x2="210" y2="151" gradientUnits="userSpaceOnUse">
<stop stop-color="#F19E38" stop-opacity="0.2"/>
<stop offset="1" stop-color="#F19E38"/>
</linearGradient>
<linearGradient id="paint26_linear_1_13388" x1="0" y1="0" x2="210" y2="151" gradientUnits="userSpaceOnUse">
<stop stop-color="#F19E38" stop-opacity="0.2"/>
<stop offset="1" stop-color="#F19E38"/>
</linearGradient>
<linearGradient id="paint27_linear_1_13388" x1="0" y1="0" x2="210" y2="151" gradientUnits="userSpaceOnUse">
<stop stop-color="#F19E38" stop-opacity="0.2"/>
<stop offset="1" stop-color="#F19E38"/>
</linearGradient>
<linearGradient id="paint28_linear_1_13388" x1="0" y1="0" x2="210" y2="151" gradientUnits="userSpaceOnUse">
<stop stop-color="#F19E38" stop-opacity="0.2"/>
<stop offset="1" stop-color="#F19E38"/>
</linearGradient>
<linearGradient id="paint29_linear_1_13388" x1="0" y1="0" x2="210" y2="151" gradientUnits="userSpaceOnUse">
<stop stop-color="#F19E38" stop-opacity="0.2"/>
<stop offset="1" stop-color="#F19E38"/>
</linearGradient>
<linearGradient id="paint30_linear_1_13388" x1="0" y1="0" x2="210" y2="151" gradientUnits="userSpaceOnUse">
<stop stop-color="#F19E38" stop-opacity="0.2"/>
<stop offset="1" stop-color="#F19E38"/>
</linearGradient>
<linearGradient id="paint31_linear_1_13388" x1="0" y1="0" x2="210" y2="151" gradientUnits="userSpaceOnUse">
<stop stop-color="#F19E38" stop-opacity="0.2"/>
<stop offset="1" stop-color="#F19E38"/>
</linearGradient>
<linearGradient id="paint32_linear_1_13388" x1="0" y1="0" x2="210" y2="151" gradientUnits="userSpaceOnUse">
<stop stop-color="#F19E38" stop-opacity="0.2"/>
<stop offset="1" stop-color="#F19E38"/>
</linearGradient>
<linearGradient id="paint33_linear_1_13388" x1="0" y1="0" x2="210" y2="151" gradientUnits="userSpaceOnUse">
<stop stop-color="#F19E38" stop-opacity="0.2"/>
<stop offset="1" stop-color="#F19E38"/>
</linearGradient>
<linearGradient id="paint34_linear_1_13388" x1="0" y1="0" x2="210" y2="151" gradientUnits="userSpaceOnUse">
<stop stop-color="#F19E38" stop-opacity="0.2"/>
<stop offset="1" stop-color="#F19E38"/>
</linearGradient>
<linearGradient id="paint35_linear_1_13388" x1="0" y1="0" x2="210" y2="151" gradientUnits="userSpaceOnUse">
<stop stop-color="#F19E38" stop-opacity="0.2"/>
<stop offset="1" stop-color="#F19E38"/>
</linearGradient>
<linearGradient id="paint36_linear_1_13388" x1="0" y1="0" x2="210" y2="151" gradientUnits="userSpaceOnUse">
<stop stop-color="#F19E38" stop-opacity="0.2"/>
<stop offset="1" stop-color="#F19E38"/>
</linearGradient>
<linearGradient id="paint37_linear_1_13388" x1="0" y1="0" x2="210" y2="151" gradientUnits="userSpaceOnUse">
<stop stop-color="#F19E38" stop-opacity="0.2"/>
<stop offset="1" stop-color="#F19E38"/>
</linearGradient>
<linearGradient id="paint38_linear_1_13388" x1="0" y1="0" x2="210" y2="151" gradientUnits="userSpaceOnUse">
<stop stop-color="#F19E38" stop-opacity="0.2"/>
<stop offset="1" stop-color="#F19E38"/>
</linearGradient>
<linearGradient id="paint39_linear_1_13388" x1="0" y1="0" x2="210" y2="151" gradientUnits="userSpaceOnUse">
<stop stop-color="#F19E38" stop-opacity="0.2"/>
<stop offset="1" stop-color="#F19E38"/>
</linearGradient>
<linearGradient id="paint40_linear_1_13388" x1="0" y1="0" x2="210" y2="151" gradientUnits="userSpaceOnUse">
<stop stop-color="#F19E38" stop-opacity="0.2"/>
<stop offset="1" stop-color="#F19E38"/>
</linearGradient>
<linearGradient id="paint41_linear_1_13388" x1="0" y1="0" x2="210" y2="151" gradientUnits="userSpaceOnUse">
<stop stop-color="#F19E38" stop-opacity="0.2"/>
<stop offset="1" stop-color="#F19E38"/>
</linearGradient>
<linearGradient id="paint42_linear_1_13388" x1="0" y1="0" x2="210" y2="151" gradientUnits="userSpaceOnUse">
<stop stop-color="#F19E38" stop-opacity="0.2"/>
<stop offset="1" stop-color="#F19E38"/>
</linearGradient>
<linearGradient id="paint43_linear_1_13388" x1="0" y1="0" x2="210" y2="151" gradientUnits="userSpaceOnUse">
<stop stop-color="#F19E38" stop-opacity="0.2"/>
<stop offset="1" stop-color="#F19E38"/>
</linearGradient>
<linearGradient id="paint44_linear_1_13388" x1="0" y1="0" x2="210" y2="151" gradientUnits="userSpaceOnUse">
<stop stop-color="#F19E38" stop-opacity="0.2"/>
<stop offset="1" stop-color="#F19E38"/>
</linearGradient>
<linearGradient id="paint45_linear_1_13388" x1="0" y1="0" x2="210" y2="151" gradientUnits="userSpaceOnUse">
<stop stop-color="#F19E38" stop-opacity="0.2"/>
<stop offset="1" stop-color="#F19E38"/>
</linearGradient>
<linearGradient id="paint46_linear_1_13388" x1="0" y1="0" x2="210" y2="151" gradientUnits="userSpaceOnUse">
<stop stop-color="#F19E38" stop-opacity="0.2"/>
<stop offset="1" stop-color="#F19E38"/>
</linearGradient>
<linearGradient id="paint47_linear_1_13388" x1="0" y1="0" x2="210" y2="151" gradientUnits="userSpaceOnUse">
<stop stop-color="#F19E38" stop-opacity="0.2"/>
<stop offset="1" stop-color="#F19E38"/>
</linearGradient>
<linearGradient id="paint48_linear_1_13388" x1="0" y1="0" x2="210" y2="151" gradientUnits="userSpaceOnUse">
<stop stop-color="#F19E38" stop-opacity="0.2"/>
<stop offset="1" stop-color="#F19E38"/>
</linearGradient>
<linearGradient id="paint49_linear_1_13388" x1="0" y1="0" x2="210" y2="151" gradientUnits="userSpaceOnUse">
<stop stop-color="#F19E38" stop-opacity="0.2"/>
<stop offset="1" stop-color="#F19E38"/>
</linearGradient>
<linearGradient id="paint50_linear_1_13388" x1="0" y1="0" x2="210" y2="151" gradientUnits="userSpaceOnUse">
<stop stop-color="#F19E38" stop-opacity="0.2"/>
<stop offset="1" stop-color="#F19E38"/>
</linearGradient>
<linearGradient id="paint51_linear_1_13388" x1="0" y1="0" x2="210" y2="151" gradientUnits="userSpaceOnUse">
<stop stop-color="#F19E38" stop-opacity="0.2"/>
<stop offset="1" stop-color="#F19E38"/>
</linearGradient>
<linearGradient id="paint52_linear_1_13388" x1="0" y1="0" x2="210" y2="151" gradientUnits="userSpaceOnUse">
<stop stop-color="#F19E38" stop-opacity="0.2"/>
<stop offset="1" stop-color="#F19E38"/>
</linearGradient>
<linearGradient id="paint53_linear_1_13388" x1="0" y1="0" x2="210" y2="151" gradientUnits="userSpaceOnUse">
<stop stop-color="#F19E38" stop-opacity="0.2"/>
<stop offset="1" stop-color="#F19E38"/>
</linearGradient>
<linearGradient id="paint54_linear_1_13388" x1="0" y1="0" x2="210" y2="151" gradientUnits="userSpaceOnUse">
<stop stop-color="#F19E38" stop-opacity="0.2"/>
<stop offset="1" stop-color="#F19E38"/>
</linearGradient>
<linearGradient id="paint55_linear_1_13388" x1="0" y1="0" x2="210" y2="151" gradientUnits="userSpaceOnUse">
<stop stop-color="#F19E38" stop-opacity="0.2"/>
<stop offset="1" stop-color="#F19E38"/>
</linearGradient>
<linearGradient id="paint56_linear_1_13388" x1="0" y1="0" x2="210" y2="151" gradientUnits="userSpaceOnUse">
<stop stop-color="#F19E38" stop-opacity="0.2"/>
<stop offset="1" stop-color="#F19E38"/>
</linearGradient>
<linearGradient id="paint57_linear_1_13388" x1="0" y1="0" x2="210" y2="151" gradientUnits="userSpaceOnUse">
<stop stop-color="#F19E38" stop-opacity="0.2"/>
<stop offset="1" stop-color="#F19E38"/>
</linearGradient>
<linearGradient id="paint58_linear_1_13388" x1="0" y1="0" x2="210" y2="151" gradientUnits="userSpaceOnUse">
<stop stop-color="#F19E38" stop-opacity="0.2"/>
<stop offset="1" stop-color="#F19E38"/>
</linearGradient>
<linearGradient id="paint59_linear_1_13388" x1="0" y1="0" x2="210" y2="151" gradientUnits="userSpaceOnUse">
<stop stop-color="#F19E38" stop-opacity="0.2"/>
<stop offset="1" stop-color="#F19E38"/>
</linearGradient>
<linearGradient id="paint60_linear_1_13388" x1="0" y1="0" x2="210" y2="151" gradientUnits="userSpaceOnUse">
<stop stop-color="#F19E38" stop-opacity="0.2"/>
<stop offset="1" stop-color="#F19E38"/>
</linearGradient>
<linearGradient id="paint61_linear_1_13388" x1="0" y1="0" x2="210" y2="151" gradientUnits="userSpaceOnUse">
<stop stop-color="#F19E38" stop-opacity="0.2"/>
<stop offset="1" stop-color="#F19E38"/>
</linearGradient>
<linearGradient id="paint62_linear_1_13388" x1="0" y1="0" x2="210" y2="151" gradientUnits="userSpaceOnUse">
<stop stop-color="#F19E38" stop-opacity="0.2"/>
<stop offset="1" stop-color="#F19E38"/>
</linearGradient>
<linearGradient id="paint63_linear_1_13388" x1="0" y1="0" x2="210" y2="151" gradientUnits="userSpaceOnUse">
<stop stop-color="#F19E38" stop-opacity="0.2"/>
<stop offset="1" stop-color="#F19E38"/>
</linearGradient>
</defs>
</svg>
