<svg version="1.2" xmlns="http://www.w3.org/2000/svg" viewBox="0 0 1627 1071" width="1627" height="1071"><style>.a{fill:#f6c552}.b{fill:#fdf3e2}</style><path class="a" d="m-847.8 697.5h3320.6v373.5h-3320.6z"/><path class="a" d="m233.7 150.3c-125.9-68.7-176.7-127.3-233.7-141v705.5h1627v-679.4c-50.8 78.2-180.2 119.6-204.4 123.2-59.8 8.9-139.4 20.2-369.2-104.2-229.7-124.4-372.6-10.9-493.4 95.9-69.2 61.2-212.8 61.9-326.3 0z"/><path class="b" d="m135.5 1318.3c-172.6 0-312.1-139.5-312.1-312.2 0-172.6 139.5-312.1 312.1-312.1 172.6 0 312.1 139.5 312.1 312.1 0 172.7-139.5 312.2-312.1 312.2z"/><path class="b" d="m218.5 266.5c0 3.4 2.7 6.1 6.1 6.1 3.4 0 6.1-2.7 6.1-6.1 0-3.4-2.7-6.1-6.1-6.1-3.4 0-6.1 2.7-6.1 6.1z"/><path class="b" d="m194.2 98.4c0 10 8.2 18.2 18.3 18.2 10 0 18.2-8.2 18.2-18.2 0-10.1-8.2-18.3-18.2-18.3-10.1 0-18.3 8.2-18.3 18.3z"/><path class="b" d="m845.3 182.5c0-0.7 0.8-0.7 0.9 0l0.6 5.1c0.7 6.5 5.5 11.7 11.5 12.5l4.7 0.6c0.6 0.1 0.6 1 0 1.1l-4.7 0.6c-6 0.7-10.8 5.9-11.5 12.5l-0.6 5.1c-0.1 0.6-0.9 0.6-0.9 0l-0.6-5.1c-0.7-6.6-5.5-11.8-11.6-12.5l-4.7-0.6c-0.5-0.1-0.5-1 0-1.1l4.7-0.6c6.1-0.8 10.9-6 11.6-12.5z"/><path class="b" d="m562.3 623.5c0-0.7 0.8-0.7 0.9 0l0.6 5.1c0.7 6.5 5.5 11.7 11.5 12.5l4.7 0.6c0.6 0.1 0.6 1 0 1.1l-4.7 0.6c-6 0.7-10.8 5.9-11.5 12.5l-0.6 5.1c-0.1 0.6-0.9 0.6-0.9 0l-0.6-5.1c-0.7-6.6-5.5-11.8-11.6-12.5l-4.7-0.6c-0.5-0.1-0.5-1 0-1.1l4.7-0.6c6.1-0.8 10.9-6 11.6-12.5z"/><path class="b" d="m1536 601.2c0 10.1 8.2 18.3 18.2 18.3 10.1 0 18.3-8.2 18.3-18.3 0-10-8.2-18.2-18.3-18.2-10 0-18.2 8.2-18.2 18.2z"/><path class="b" d="m1302 634c0 3.3 2.7 6 6 6 3.3 0 6-2.7 6-6 0-3.3-2.7-6-6-6-3.3 0-6 2.7-6 6z"/></svg>