<svg width="43" height="46" viewBox="0 0 43 46" fill="none" xmlns="http://www.w3.org/2000/svg">
<path d="M33.8927 14.0055L21.7304 9.4238C21.5819 9.36785 21.4182 9.36785 21.2698 9.4238L9.10699 14.0055C8.90212 14.0837 8.77419 14.2923 8.79583 14.5125C9.30544 19.6939 11.1906 25.784 13.7156 30.4061C16.2167 34.9844 19.1267 37.7178 21.4998 37.7178C23.8728 37.7178 26.7828 34.9844 29.2839 30.4061C31.8089 25.784 33.6941 19.6939 34.2037 14.5124C34.2258 14.2887 34.1008 14.085 33.8927 14.0055Z" fill="#F19E38"/>
<path d="M39.4677 7.882L23.4603 0.908417C22.2104 0.363861 20.7904 0.363861 19.5405 0.908417L3.53309 7.882C1.46884 8.6707 0.263672 10.7409 0.40442 12.9462C1.32217 27.3321 10.7035 45.5 21.5005 45.5C32.2976 45.5 41.66 28.0359 42.5967 12.9462C42.7336 10.7372 41.5351 8.67198 39.4677 7.882ZM37.3949 14.8263C36.328 25.6746 29.6352 40.9239 21.5004 40.9239C13.3654 40.9239 6.67266 25.6746 5.60567 14.8263C5.44264 13.1692 6.40768 11.6049 7.96312 11.0105L20.1808 6.34211C20.6056 6.17972 21.0531 6.09861 21.5004 6.09861H21.5005C21.948 6.09861 22.3951 6.17972 22.82 6.34211L35.0373 11.0105C36.5952 11.6059 37.5581 13.1668 37.3949 14.8263Z" fill="#F19E38"/>
</svg>
