<svg width="45" height="40" viewBox="0 0 45 40" fill="none" xmlns="http://www.w3.org/2000/svg">
<path d="M19.6875 11.5615V8.74902H2.8125C1.26281 8.74902 0 10.0118 0 11.5615V17.1865H20.2809C19.89 15.4681 19.6875 13.6175 19.6875 11.5615Z" fill="#F19E38"/>
<path d="M44.8847 22.8115C42.9666 25.7675 40.0416 28.2818 35.8509 30.6893C35.2069 31.0578 34.4813 31.249 33.75 31.249C33.0187 31.249 32.2931 31.0578 31.6575 30.695C27.4669 28.2818 24.5419 25.7646 22.6209 22.8115H0V36.874C0 38.4265 1.26281 39.6865 2.8125 39.6865H42.1875C43.74 39.6865 45 38.4265 45 36.874V22.8115H44.8847ZM12.6562 31.249H7.03125C6.255 31.249 5.625 30.619 5.625 29.8428C5.625 29.0665 6.255 28.4365 7.03125 28.4365H12.6562C13.4325 28.4365 14.0625 29.0665 14.0625 29.8428C14.0625 30.619 13.4325 31.249 12.6562 31.249Z" fill="#F19E38"/>
<path d="M44.1481 4.64564L34.3043 0.426895C33.9471 0.27502 33.5506 0.27502 33.1934 0.426895L23.3496 4.64564C22.8349 4.86502 22.5002 5.37408 22.5002 5.93658V11.5616C22.5002 19.2988 25.3606 23.8213 33.0499 28.251C33.2665 28.3747 33.5084 28.4366 33.7502 28.4366C33.9921 28.4366 34.234 28.3747 34.4506 28.251C42.1399 23.8325 45.0002 19.31 45.0002 11.5616V5.93658C45.0002 5.37408 44.6656 4.86502 44.1481 4.64564ZM39.0687 11.0356L33.4437 18.0669C33.1737 18.3988 32.7687 18.5928 32.344 18.5928C32.3243 18.5928 32.3018 18.5928 32.2849 18.5928C31.8377 18.5731 31.4243 18.3425 31.174 17.9685L28.3615 13.7497C27.9312 13.1028 28.1056 12.231 28.7524 11.8006C29.3937 11.3731 30.2684 11.5419 30.7015 12.1916L32.4481 14.81L36.8693 9.28064C37.3559 8.67596 38.2418 8.58033 38.8465 9.06127C39.454 9.54221 39.5496 10.4281 39.0687 11.0356Z" fill="#F19E38"/>
</svg>
