<svg width="122" height="122" viewBox="0 0 122 122" fill="none" xmlns="http://www.w3.org/2000/svg">
<path d="M59.0225 59.9076C59.2757 58.8947 59.4234 58.0717 59.6977 57.2698C62.441 49.1667 66.8513 41.9499 71.8735 35.0917C72.4644 34.2899 73.203 33.5302 74.0259 33.0237C74.4691 32.7494 75.3554 32.7916 75.8618 33.0659C76.2416 33.277 76.516 34.0999 76.4316 34.5642C76.2838 35.4505 75.9673 36.3578 75.5242 37.1597C72.6121 42.4563 69.6789 47.7318 66.7036 52.9862C65.5852 54.9486 64.4035 56.89 63.2428 58.8314C62.863 59.4855 62.441 60.1186 61.9978 60.7095C61.5125 61.3847 60.7739 61.7857 60.0354 61.3425C59.55 61.0471 59.0225 60.8361 59.0225 59.9076Z" fill="#F19E38"/>
<path d="M88.9026 91.3289C87.8897 91.1601 86.708 91.0335 85.5685 90.7803C81.0738 89.7674 76.5791 88.7545 72.1055 87.6994C71.1348 87.4673 70.1852 87.0664 69.32 86.6021C68.1594 85.9902 67.7585 85.125 67.9484 84.1754C68.1383 83.2258 68.898 82.635 70.2274 82.6139C71.1348 82.5928 72.1055 82.6139 72.9707 82.8249C78.6471 84.2598 84.3235 85.7369 89.9788 87.2352C90.6119 87.404 91.266 87.6994 91.7514 88.1215C92.9753 89.1554 92.5955 90.7803 91.0339 91.1812C90.422 91.3289 89.7256 91.2656 88.9026 91.3289Z" fill="#F19E38"/>
<path d="M29.6067 34.7542C29.6911 33.7624 29.9022 32.7706 30.1554 31.7999C30.3875 30.9347 30.9784 30.3228 31.9279 30.2384C32.7298 30.1751 33.595 30.9769 33.7216 32.032C33.8904 33.4459 34.0381 34.8808 33.9748 36.2946C33.7849 40.5572 33.5106 44.8409 33.2152 49.1035C33.1096 50.5173 32.9197 51.9311 32.6876 53.345C32.6032 53.8303 32.4344 54.3368 32.1601 54.7166C31.4215 55.7928 30.071 55.7084 29.5434 54.5478C29.248 53.8936 29.1214 53.0917 29.1214 52.3743C29.0159 50.0109 29.3324 38.2571 29.6067 34.7542Z" fill="#F19E38"/>
</svg>
