<svg width="122" height="123" viewBox="0 0 122 123" fill="none" xmlns="http://www.w3.org/2000/svg">
<path d="M62.7383 60.8446C62.4851 59.8317 62.3373 59.0087 62.063 58.2069C59.3198 50.1037 54.9095 42.8869 49.8872 36.0287C49.2963 35.2269 48.5578 34.4672 47.7348 33.9608C47.2917 33.6864 46.4054 33.7286 45.8989 34.003C45.5191 34.214 45.2448 35.037 45.3292 35.5012C45.4769 36.3875 45.7934 37.2949 46.2366 38.0967C49.1486 43.3933 52.0818 48.6688 55.0572 53.9232C56.1756 55.8857 57.3573 57.827 58.5179 59.7684C58.8977 60.4226 59.3198 61.0556 59.7629 61.6465C60.2483 62.3217 60.9868 62.7227 61.7254 62.2795C62.2107 61.9841 62.7383 61.7731 62.7383 60.8446Z" fill="#F19E38"/>
<path d="M32.8581 92.2664C33.871 92.0976 35.0527 91.971 36.1922 91.7178C40.6869 90.7049 45.1816 89.692 49.6552 88.6369C50.6259 88.4048 51.5755 88.0039 52.4407 87.5396C53.6013 86.9277 54.0022 86.0625 53.8123 85.1129C53.6224 84.1633 52.8627 83.5725 51.5333 83.5514C50.6259 83.5303 49.6552 83.5514 48.7901 83.7624C43.1136 85.1973 37.4372 86.6744 31.7819 88.1727C31.1489 88.3415 30.4947 88.6369 30.0094 89.059C28.7854 90.0929 29.1653 91.7178 30.7268 92.1187C31.3388 92.2664 32.0351 92.2031 32.8581 92.2664Z" fill="#F19E38"/>
<path d="M92.154 35.6917C92.0696 34.6999 91.8586 33.7081 91.6054 32.7374C91.3732 31.8722 90.7824 31.2603 89.8328 31.1759C89.0309 31.1126 88.1658 31.9144 88.0391 32.9695C87.8703 34.3834 87.7226 35.8183 87.7859 37.2321C87.9758 41.4947 88.2502 45.7784 88.5456 50.041C88.6511 51.4548 88.841 52.8686 89.0731 54.2825C89.1575 54.7678 89.3264 55.2743 89.6007 55.6541C90.3393 56.7303 91.6898 56.6459 92.2173 55.4853C92.5127 54.8311 92.6394 54.0292 92.6394 53.3118C92.7449 50.9484 92.4283 39.1946 92.154 35.6917Z" fill="#F19E38"/>
</svg>
