<svg width="110" height="32" viewBox="0 0 110 32" fill="none" xmlns="http://www.w3.org/2000/svg">
<mask id="path-1-outside-1_304_497" maskUnits="userSpaceOnUse" x="-0.415039" y="2.49316" width="26" height="26" fill="black">
<rect fill="white" x="-0.415039" y="2.49316" width="26" height="26"/>
<path d="M12.8298 4.49316C10.6058 4.49316 8.43168 5.15265 6.58247 6.38822C4.73332 7.62385 3.29204 9.38006 2.4409 11.4347C1.58982 13.4895 1.36714 15.7504 1.80105 17.9317C2.2349 20.113 3.30585 22.1166 4.87848 23.6892C6.45111 25.2618 8.45478 26.3328 10.6361 26.7666C12.8173 27.2005 15.0783 26.9779 17.133 26.1268C19.1877 25.2756 20.9439 23.8344 22.1795 21.9852C23.4151 20.136 24.0746 17.962 24.0746 15.738C24.0746 12.7556 22.8899 9.89549 20.7811 7.78671C18.6722 5.67785 15.8121 4.49316 12.8298 4.49316ZM17.99 20.7097C17.9422 20.7892 17.879 20.8583 17.8042 20.9132C17.7294 20.968 17.6444 21.0074 17.5542 21.0291C17.464 21.0508 17.3704 21.0544 17.2789 21.0396C17.1873 21.0248 17.0995 20.992 17.0208 20.9431C14.3824 19.3277 11.0619 18.9687 7.14905 19.8571C7.06002 19.8784 6.96771 19.8818 6.87737 19.867C6.7871 19.8523 6.70055 19.8197 6.62296 19.7714C6.54531 19.7229 6.47806 19.6596 6.42507 19.5849C6.37208 19.5103 6.33454 19.4259 6.31445 19.3366C6.29306 19.2471 6.28966 19.1542 6.30425 19.0632C6.3189 18.9723 6.35129 18.8852 6.39963 18.8068C6.44797 18.7285 6.51136 18.6604 6.586 18.6066C6.66071 18.5528 6.74529 18.5142 6.83491 18.493C11.1157 17.5148 14.7952 17.9366 17.7567 19.7495C17.9147 19.8461 18.028 20.0014 18.0717 20.1813C18.1155 20.3614 18.0861 20.5513 17.99 20.7097ZM19.3631 17.6494C19.2377 17.8424 19.043 17.9797 18.8192 18.0332C18.5954 18.0866 18.3596 18.052 18.1605 17.9366C14.7483 16.0332 10.72 15.562 6.96058 16.6264C6.84362 16.6916 6.7135 16.7298 6.57985 16.7382C6.44614 16.7466 6.31229 16.7249 6.18807 16.6749C6.06384 16.6248 5.95244 16.5476 5.86196 16.4488C5.77149 16.3501 5.70424 16.2323 5.66519 16.1042C5.62613 15.976 5.61625 15.8408 5.63627 15.7084C5.65629 15.576 5.70568 15.4497 5.78084 15.3389C5.85601 15.228 5.95505 15.1354 6.07065 15.0678C6.1863 15.0002 6.31557 14.9593 6.44902 14.9482C8.54741 14.3442 10.7454 14.1655 12.9137 14.4229C15.0821 14.6803 17.1773 15.3684 19.0759 16.4469C19.2688 16.5723 19.4062 16.7671 19.4596 16.9908C19.513 17.2146 19.4785 17.4504 19.3631 17.6494ZM19.4797 14.4636C15.89 12.3097 9.88624 12.1123 6.42213 13.1623C6.15556 13.2433 5.86772 13.215 5.62201 13.0837C5.37631 12.9524 5.19281 12.7289 5.11189 12.4623C5.03097 12.1958 5.05923 11.9079 5.19052 11.6622C5.32175 11.4165 5.54528 11.233 5.81185 11.1521C9.78752 9.94954 16.3836 10.1829 20.5567 12.6508C20.7712 12.8043 20.9201 13.033 20.9737 13.2913C21.0273 13.5496 20.9817 13.8186 20.846 14.0449C20.7102 14.2711 20.4943 14.4379 20.2412 14.5122C19.988 14.5865 19.7162 14.5627 19.4797 14.4456V14.4636Z"/>
</mask>
<path d="M12.8298 4.49316C10.6058 4.49316 8.43168 5.15265 6.58247 6.38822C4.73332 7.62385 3.29204 9.38006 2.4409 11.4347C1.58982 13.4895 1.36714 15.7504 1.80105 17.9317C2.2349 20.113 3.30585 22.1166 4.87848 23.6892C6.45111 25.2618 8.45478 26.3328 10.6361 26.7666C12.8173 27.2005 15.0783 26.9779 17.133 26.1268C19.1877 25.2756 20.9439 23.8344 22.1795 21.9852C23.4151 20.136 24.0746 17.962 24.0746 15.738C24.0746 12.7556 22.8899 9.89549 20.7811 7.78671C18.6722 5.67785 15.8121 4.49316 12.8298 4.49316ZM17.99 20.7097C17.9422 20.7892 17.879 20.8583 17.8042 20.9132C17.7294 20.968 17.6444 21.0074 17.5542 21.0291C17.464 21.0508 17.3704 21.0544 17.2789 21.0396C17.1873 21.0248 17.0995 20.992 17.0208 20.9431C14.3824 19.3277 11.0619 18.9687 7.14905 19.8571C7.06002 19.8784 6.96771 19.8818 6.87737 19.867C6.7871 19.8523 6.70055 19.8197 6.62296 19.7714C6.54531 19.7229 6.47806 19.6596 6.42507 19.5849C6.37208 19.5103 6.33454 19.4259 6.31445 19.3366C6.29306 19.2471 6.28966 19.1542 6.30425 19.0632C6.3189 18.9723 6.35129 18.8852 6.39963 18.8068C6.44797 18.7285 6.51136 18.6604 6.586 18.6066C6.66071 18.5528 6.74529 18.5142 6.83491 18.493C11.1157 17.5148 14.7952 17.9366 17.7567 19.7495C17.9147 19.8461 18.028 20.0014 18.0717 20.1813C18.1155 20.3614 18.0861 20.5513 17.99 20.7097ZM19.3631 17.6494C19.2377 17.8424 19.043 17.9797 18.8192 18.0332C18.5954 18.0866 18.3596 18.052 18.1605 17.9366C14.7483 16.0332 10.72 15.562 6.96058 16.6264C6.84362 16.6916 6.7135 16.7298 6.57985 16.7382C6.44614 16.7466 6.31229 16.7249 6.18807 16.6749C6.06384 16.6248 5.95244 16.5476 5.86196 16.4488C5.77149 16.3501 5.70424 16.2323 5.66519 16.1042C5.62613 15.976 5.61625 15.8408 5.63627 15.7084C5.65629 15.576 5.70568 15.4497 5.78084 15.3389C5.85601 15.228 5.95505 15.1354 6.07065 15.0678C6.1863 15.0002 6.31557 14.9593 6.44902 14.9482C8.54741 14.3442 10.7454 14.1655 12.9137 14.4229C15.0821 14.6803 17.1773 15.3684 19.0759 16.4469C19.2688 16.5723 19.4062 16.7671 19.4596 16.9908C19.513 17.2146 19.4785 17.4504 19.3631 17.6494ZM19.4797 14.4636C15.89 12.3097 9.88624 12.1123 6.42213 13.1623C6.15556 13.2433 5.86772 13.215 5.62201 13.0837C5.37631 12.9524 5.19281 12.7289 5.11189 12.4623C5.03097 12.1958 5.05923 11.9079 5.19052 11.6622C5.32175 11.4165 5.54528 11.233 5.81185 11.1521C9.78752 9.94954 16.3836 10.1829 20.5567 12.6508C20.7712 12.8043 20.9201 13.033 20.9737 13.2913C21.0273 13.5496 20.9817 13.8186 20.846 14.0449C20.7102 14.2711 20.4943 14.4379 20.2412 14.5122C19.988 14.5865 19.7162 14.5627 19.4797 14.4456V14.4636Z" fill="#1ED760"/>
<path d="M6.58247 6.38822L5.80158 5.21949L5.80153 5.21952L6.58247 6.38822ZM2.4409 11.4347L1.14231 10.8968L1.14229 10.8968L2.4409 11.4347ZM1.80105 17.9317L3.17965 17.6575L3.17964 17.6574L1.80105 17.9317ZM4.87848 23.6892L3.88457 24.6831L3.88459 24.6831L4.87848 23.6892ZM17.133 26.1268L16.5951 24.8282L16.595 24.8282L17.133 26.1268ZM20.7811 7.78671L19.7872 8.78062L20.7811 7.78671ZM17.99 20.7097L16.7883 19.9805L16.7857 19.9849L17.99 20.7097ZM17.8042 20.9132L18.635 22.047L18.6355 22.0466L17.8042 20.9132ZM17.5542 21.0291L17.2253 19.6625L17.2251 19.6626L17.5542 21.0291ZM17.0208 20.9431L17.7629 19.7493L17.7547 19.7443L17.0208 20.9431ZM7.14905 19.8571L6.83781 18.4864L6.83027 18.4882L6.82276 18.4899L7.14905 19.8571ZM6.87737 19.867L7.10433 18.4798L7.10351 18.4797L6.87737 19.867ZM6.62296 19.7714L5.87906 20.964L5.87934 20.9641L6.62296 19.7714ZM6.31445 19.3366L7.68579 19.0282L7.68375 19.0191L7.68158 19.01L6.31445 19.3366ZM6.30425 19.0632L4.91655 18.8396L4.91639 18.8406L6.30425 19.0632ZM6.39963 18.8068L5.2035 18.0686L5.20323 18.069L6.39963 18.8068ZM6.586 18.6066L5.76412 17.4663L5.76365 17.4667L6.586 18.6066ZM6.83491 18.493L6.52178 17.1227L6.51256 17.1249L6.83491 18.493ZM17.7567 19.7495L17.0229 20.9483L17.0234 20.9486L17.7567 19.7495ZM18.0717 20.1813L16.7058 20.513L16.7059 20.5134L18.0717 20.1813ZM19.3631 17.6494L20.5417 18.4154L20.5611 18.3854L20.5791 18.3545L19.3631 17.6494ZM18.1605 17.9366L18.8656 16.7206L18.8555 16.7148L18.8453 16.7091L18.1605 17.9366ZM6.96058 16.6264L6.57767 15.2739L6.41938 15.3187L6.27571 15.3989L6.96058 16.6264ZM6.57985 16.7382L6.66778 18.1411L6.66782 18.1411L6.57985 16.7382ZM5.86196 16.4488L6.89853 15.4994L6.89821 15.4991L5.86196 16.4488ZM5.66519 16.1042L4.32064 16.514L4.3207 16.5141L5.66519 16.1042ZM6.07065 15.0678L5.36158 13.8541L5.36077 13.8546L6.07065 15.0678ZM6.44902 14.9482L6.56538 16.349L6.7041 16.3375L6.83785 16.299L6.44902 14.9482ZM12.9137 14.4229L12.748 15.8187L12.7481 15.8188L12.9137 14.4229ZM19.0759 16.4469L19.8419 15.2684L19.8067 15.2455L19.7702 15.2248L19.0759 16.4469ZM19.4596 16.9908L20.8268 16.6644L20.8267 16.6643L19.4596 16.9908ZM19.4797 14.4636L18.7566 15.6689L20.8853 16.9462V14.4636H19.4797ZM6.42213 13.1623L6.0144 11.8171L6.01363 11.8174L6.42213 13.1623ZM5.62201 13.0837L6.28454 11.844L6.28428 11.8438L5.62201 13.0837ZM5.11189 12.4623L6.45689 12.054L6.45686 12.054L5.11189 12.4623ZM5.19052 11.6622L6.43027 12.3246L6.43033 12.3244L5.19052 11.6622ZM5.81185 11.1521L5.40489 9.80671L5.40366 9.80708L5.81185 11.1521ZM20.5567 12.6508L21.3749 11.5078L21.325 11.4721L21.2722 11.4409L20.5567 12.6508ZM20.9737 13.2913L22.35 13.0058L22.35 13.0056L20.9737 13.2913ZM20.846 14.0449L22.0512 14.7681L22.0513 14.768L20.846 14.0449ZM20.2412 14.5122L19.8456 13.1634L19.8454 13.1635L20.2412 14.5122ZM19.4797 14.4456L20.1035 13.186L18.0741 12.1812V14.4456H19.4797ZM12.8298 3.08756C10.3278 3.08756 7.88194 3.82948 5.80158 5.21949L7.36336 7.55694C8.98143 6.47582 10.8838 5.89876 12.8298 5.89876V3.08756ZM5.80153 5.21952C3.72125 6.6096 2.09984 8.58532 1.14231 10.8968L3.73949 11.9727C4.48425 10.1748 5.74539 8.63809 7.36341 7.55691L5.80153 5.21952ZM1.14229 10.8968C0.184832 13.2084 -0.0656883 15.752 0.422468 18.2059L3.17964 17.6574C2.79997 15.7489 2.99481 13.7705 3.73951 11.9726L1.14229 10.8968ZM0.422458 18.2059C0.910539 20.6599 2.11536 22.9139 3.88457 24.6831L5.87239 22.6953C4.49633 21.3193 3.55926 19.5661 3.17965 17.6575L0.422458 18.2059ZM3.88459 24.6831C5.65379 26.4523 7.9079 27.6571 10.3618 28.1452L10.9103 25.3881C9.00166 25.0084 7.24843 24.0713 5.87237 22.6953L3.88459 24.6831ZM10.3618 28.1452C12.8157 28.6333 15.3593 28.3829 17.6709 27.4254L16.595 24.8282C14.7972 25.5729 12.8189 25.7677 10.9103 25.3881L10.3618 28.1452ZM17.6709 27.4254C19.9825 26.4679 21.9582 24.8465 23.3482 22.7661L21.0108 21.2043C19.9297 22.8223 18.393 24.0834 16.5951 24.8282L17.6709 27.4254ZM23.3482 22.7661C24.7383 20.6858 25.4802 18.24 25.4802 15.738H22.669C22.669 17.684 22.092 19.5863 21.0108 21.2043L23.3482 22.7661ZM25.4802 15.738C25.4802 12.3828 24.1474 9.16519 21.775 6.7928L19.7872 8.78062C21.6324 10.6258 22.669 13.1284 22.669 15.738H25.4802ZM21.775 6.7928C19.4025 4.42034 16.1849 3.08756 12.8298 3.08756V5.89876C15.4393 5.89876 17.9419 6.93536 19.7872 8.78062L21.775 6.7928ZM16.7857 19.9849C16.8342 19.9043 16.8979 19.8347 16.973 19.7797L18.6355 22.0466C18.8601 21.8819 19.0502 21.674 19.1943 21.4346L16.7857 19.9849ZM16.9734 19.7794C17.0489 19.724 17.1346 19.6844 17.2253 19.6625L17.8831 22.3957C18.1542 22.3304 18.4098 22.212 18.635 22.047L16.9734 19.7794ZM17.2251 19.6626C17.3162 19.6406 17.4106 19.6371 17.5028 19.6519L17.0549 22.4272C17.3303 22.4717 17.6119 22.461 17.8833 22.3956L17.2251 19.6626ZM17.5028 19.6519C17.5947 19.6668 17.6832 19.6998 17.7629 19.7493L16.2787 22.1368C16.5159 22.2843 16.7798 22.3828 17.0549 22.4272L17.5028 19.6519ZM17.7547 19.7443C14.7168 17.8843 10.9946 17.5426 6.83781 18.4864L7.46029 21.2279C11.1291 20.3948 14.048 20.771 16.2868 22.1418L17.7547 19.7443ZM6.82276 18.4899C6.91463 18.468 7.01039 18.4645 7.10433 18.4798L6.65041 21.2541C6.92504 21.2991 7.2054 21.2888 7.47534 21.2243L6.82276 18.4899ZM7.10351 18.4797C7.19686 18.4949 7.28622 18.5285 7.36659 18.5786L5.87934 20.9641C6.11488 21.111 6.37733 21.2096 6.65124 21.2543L7.10351 18.4797ZM7.36687 18.5788C7.44702 18.6288 7.51648 18.6942 7.57118 18.7712L5.27896 20.3987C5.43964 20.625 5.64361 20.8171 5.87906 20.964L7.36687 18.5788ZM7.57118 18.7712C7.6264 18.849 7.66516 18.9365 7.68579 19.0282L4.94312 19.6451C5.00392 19.9154 5.11777 20.1716 5.27896 20.3987L7.57118 18.7712ZM7.68158 19.01C7.70343 19.1015 7.70664 19.1952 7.6921 19.2859L4.91639 18.8406C4.87268 19.1131 4.88269 19.3927 4.94732 19.6632L7.68158 19.01ZM7.69194 19.2869C7.67726 19.378 7.64472 19.4656 7.59603 19.5446L5.20323 18.069C5.05785 18.3048 4.96054 18.5666 4.91655 18.8396L7.69194 19.2869ZM7.59575 19.5451C7.54678 19.6244 7.48298 19.6927 7.40835 19.7465L5.76365 17.4667C5.53973 17.6282 5.34916 17.8326 5.2035 18.0686L7.59575 19.5451ZM7.40788 19.7469C7.33283 19.801 7.2477 19.8399 7.15727 19.8612L6.51256 17.1249C6.24288 17.1884 5.98858 17.3045 5.76412 17.4663L7.40788 19.7469ZM7.14804 19.8633C11.1708 18.9441 14.4523 19.3748 17.0229 20.9483L18.4906 18.5506C15.138 16.4985 11.0606 16.0856 6.52179 17.1228L7.14804 19.8633ZM17.0234 20.9486C16.8642 20.8512 16.7499 20.6947 16.7058 20.513L19.4376 19.8497C19.3061 19.3081 18.9653 18.8409 18.49 18.5503L17.0234 20.9486ZM16.7059 20.5134C16.6618 20.332 16.6914 20.1403 16.7883 19.9806L19.1917 21.4389C19.4808 20.9624 19.5692 20.3908 19.4375 19.8493L16.7059 20.5134ZM18.1846 16.8835C18.2557 16.774 18.3661 16.6962 18.4926 16.666L19.1457 19.4003C19.7198 19.2632 20.2197 18.9108 20.5417 18.4154L18.1846 16.8835ZM18.4926 16.666C18.6195 16.6357 18.753 16.6554 18.8656 16.7206L17.4555 19.1526C17.9662 19.4487 18.5712 19.5375 19.1457 19.4003L18.4926 16.666ZM18.8453 16.7091C15.1078 14.6242 10.6955 14.1081 6.57767 15.2739L7.34349 17.9788C10.7446 17.0159 14.3889 17.4422 17.4758 19.1642L18.8453 16.7091ZM6.27571 15.3989C6.34224 15.3618 6.41611 15.3401 6.49188 15.3354L6.66782 18.1411C7.01089 18.1195 7.34499 18.0215 7.64545 17.8538L6.27571 15.3989ZM6.49193 15.3354C6.56754 15.3306 6.64333 15.3429 6.71366 15.3712L5.66248 17.9785C5.98126 18.107 6.32474 18.1626 6.66778 18.1411L6.49193 15.3354ZM6.71366 15.3712C6.78386 15.3995 6.84711 15.4433 6.89853 15.4994L4.8254 17.3981C5.05777 17.6518 5.34382 17.85 5.66248 17.9785L6.71366 15.3712ZM6.89821 15.4991C6.94955 15.5551 6.98758 15.6218 7.00968 15.6942L4.3207 16.5141C4.4209 16.8428 4.59343 17.145 4.82572 17.3985L6.89821 15.4991ZM7.00973 15.6944C7.03181 15.7669 7.03742 15.8435 7.02608 15.9185L4.24646 15.4983C4.19509 15.8382 4.22045 16.1852 4.32064 16.514L7.00973 15.6944ZM7.02608 15.9185C7.01475 15.9934 6.98677 16.0649 6.94425 16.1277L4.61744 14.5501C4.42459 14.8345 4.29783 15.1585 4.24646 15.4983L7.02608 15.9185ZM6.94425 16.1277C6.90149 16.1907 6.84542 16.243 6.78052 16.281L5.36077 13.8546C5.06469 14.0279 4.81053 14.2653 4.61744 14.5501L6.94425 16.1277ZM6.77971 16.2814C6.71487 16.3193 6.64172 16.3426 6.56538 16.349L6.33265 13.5474C5.98942 13.576 5.65773 13.6811 5.36158 13.8541L6.77971 16.2814ZM6.83785 16.299C8.75627 15.7467 10.7657 15.5834 12.748 15.8187L13.0794 13.0272C10.725 12.7476 8.33854 12.9416 6.06018 13.5975L6.83785 16.299ZM12.7481 15.8188C14.7305 16.054 16.6459 16.6831 18.3817 17.6691L19.7702 15.2248C17.7086 14.0537 15.4338 13.3066 13.0794 13.0271L12.7481 15.8188ZM18.31 17.6255C18.2004 17.5543 18.1227 17.4439 18.0925 17.3174L20.8267 16.6643C20.6896 16.0902 20.3373 15.5903 19.8419 15.2684L18.31 17.6255ZM18.0924 17.3173C18.0622 17.1907 18.0817 17.0572 18.1471 16.9444L20.5791 18.3545C20.8753 17.8436 20.9639 17.2386 20.8268 16.6644L18.0924 17.3173ZM20.2029 13.2583C18.1558 12.03 15.5212 11.4074 13.014 11.2102C10.5006 11.0126 7.95157 11.23 6.0144 11.8171L6.82987 14.5075C8.3568 14.0446 10.5418 13.8357 12.7937 14.0128C15.0519 14.1903 17.2139 14.7433 18.7566 15.6689L20.2029 13.2583ZM6.01363 11.8174C6.10396 11.7899 6.2014 11.7996 6.28454 11.844L4.95948 14.3233C5.53404 14.6304 6.20716 14.6966 6.83063 14.5072L6.01363 11.8174ZM6.28428 11.8438C6.36748 11.8883 6.42954 11.9639 6.45689 12.054L3.76689 12.8706C3.95608 13.4939 4.38513 14.0165 4.95974 14.3235L6.28428 11.8438ZM6.45686 12.054C6.48424 12.1441 6.47468 12.2414 6.43027 12.3246L3.95077 10.9998C3.64377 11.5744 3.5777 12.2474 3.76691 12.8707L6.45686 12.054ZM6.43033 12.3244C6.38586 12.4077 6.3102 12.4698 6.22005 12.4971L5.40366 9.80708C4.78035 9.99625 4.25764 10.4253 3.95071 10.9999L6.43033 12.3244ZM6.21881 12.4975C8.00492 11.9572 10.4662 11.7206 12.9965 11.926C15.5304 12.1317 17.9958 12.7693 19.8412 13.8606L21.2722 11.4409C18.9445 10.0643 16.0253 9.35137 13.2239 9.12402C10.4191 8.89638 7.59446 9.14441 5.40489 9.80671L6.21881 12.4975ZM19.7385 13.7937C19.666 13.7418 19.6156 13.6644 19.5975 13.5771L22.35 13.0056C22.2246 12.4015 21.8764 11.8669 21.3749 11.5078L19.7385 13.7937ZM19.5974 13.5768C19.5793 13.4893 19.5948 13.3983 19.6406 13.3218L22.0513 14.768C22.3687 14.239 22.4753 13.6099 22.35 13.0058L19.5974 13.5768ZM19.6407 13.3217C19.6867 13.245 19.7598 13.1885 19.8456 13.1634L20.6368 15.8609C21.2288 15.6873 21.7338 15.2972 22.0512 14.7681L19.6407 13.3217ZM19.8454 13.1635C19.9312 13.1383 20.0233 13.1463 20.1035 13.186L18.856 15.7053C19.409 15.9791 20.0449 16.0347 20.637 15.8609L19.8454 13.1635ZM18.0741 14.4456V14.4636H20.8853V14.4456H18.0741Z" fill="black" mask="url(#path-1-outside-1_304_497)"/>
<path d="M41.4777 23.4705C40.3888 23.4705 39.3328 23.3262 38.3095 23.0376C37.2993 22.7359 36.4859 22.3488 35.8694 21.8766L36.9517 19.4758C37.542 19.9087 38.2439 20.2564 39.0573 20.5188C39.8706 20.7811 40.684 20.9123 41.4974 20.9123C42.4026 20.9123 43.0716 20.7811 43.5046 20.5188C43.9375 20.2433 44.154 19.8825 44.154 19.4364C44.154 19.1085 44.0228 18.8395 43.7604 18.6296C43.5111 18.4066 43.1832 18.2295 42.7765 18.0983C42.3829 17.9671 41.845 17.8228 41.1628 17.6654C40.1133 17.4161 39.254 17.1669 38.585 16.9176C37.9159 16.6684 37.3387 16.2682 36.8533 15.7172C36.381 15.1662 36.1449 14.4316 36.1449 13.5132C36.1449 12.713 36.3613 11.9915 36.7942 11.3486C37.2272 10.6927 37.8766 10.1745 38.7424 9.79403C39.6214 9.41358 40.6906 9.22336 41.95 9.22336C42.8289 9.22336 43.6882 9.32831 44.5278 9.53821C45.3675 9.74811 46.1021 10.0498 46.7318 10.4434L45.7479 12.8639C44.4754 12.1423 43.2028 11.7815 41.9303 11.7815C41.0382 11.7815 40.3757 11.9259 39.9428 12.2145C39.523 12.5031 39.3131 12.8835 39.3131 13.3558C39.3131 13.8281 39.5558 14.1823 40.0412 14.4185C40.5397 14.6415 41.294 14.8645 42.3042 15.0875C43.3537 15.3368 44.213 15.586 44.8821 15.8353C45.5511 16.0846 46.1218 16.4781 46.5941 17.016C47.0795 17.5539 47.3222 18.282 47.3222 19.2003C47.3222 19.9874 47.0992 20.709 46.6531 21.3649C46.2202 22.0078 45.5642 22.5194 44.6853 22.8998C43.8063 23.2803 42.7371 23.4705 41.4777 23.4705ZM55.5418 12.49C56.5257 12.49 57.4178 12.7196 58.218 13.1787C59.0314 13.6248 59.6677 14.261 60.1268 15.0875C60.586 15.9009 60.8156 16.852 60.8156 17.9409C60.8156 19.0298 60.586 19.9874 60.1268 20.8139C59.6677 21.6273 59.0314 22.2636 58.218 22.7227C57.4178 23.1688 56.5257 23.3918 55.5418 23.3918C54.1905 23.3918 53.1279 22.9654 52.3539 22.1127V27.052H49.284V12.6474H52.2161V13.8675C52.977 12.9491 54.0856 12.49 55.5418 12.49ZM55.0104 20.873C55.7976 20.873 56.4404 20.6106 56.9389 20.0858C57.4506 19.548 57.7064 18.833 57.7064 17.9409C57.7064 17.0488 57.4506 16.3404 56.9389 15.8156C56.4404 15.2777 55.7976 15.0088 55.0104 15.0088C54.2233 15.0088 53.5739 15.2777 53.0623 15.8156C52.5638 16.3404 52.3145 17.0488 52.3145 17.9409C52.3145 18.833 52.5638 19.548 53.0623 20.0858C53.5739 20.6106 54.2233 20.873 55.0104 20.873ZM67.9082 23.3918C66.7931 23.3918 65.7895 23.1622 64.8974 22.7031C64.0185 22.2308 63.3297 21.5814 62.8312 20.7549C62.3327 19.9284 62.0834 18.9904 62.0834 17.9409C62.0834 16.8914 62.3327 15.9534 62.8312 15.1269C63.3297 14.3004 64.0185 13.6576 64.8974 13.1984C65.7895 12.7261 66.7931 12.49 67.9082 12.49C69.0234 12.49 70.0204 12.7261 70.8994 13.1984C71.7783 13.6576 72.4671 14.3004 72.9656 15.1269C73.4641 15.9534 73.7134 16.8914 73.7134 17.9409C73.7134 18.9904 73.4641 19.9284 72.9656 20.7549C72.4671 21.5814 71.7783 22.2308 70.8994 22.7031C70.0204 23.1622 69.0234 23.3918 67.9082 23.3918ZM67.9082 20.873C68.6954 20.873 69.3382 20.6106 69.8367 20.0858C70.3484 19.548 70.6042 18.833 70.6042 17.9409C70.6042 17.0488 70.3484 16.3404 69.8367 15.8156C69.3382 15.2777 68.6954 15.0088 67.9082 15.0088C67.1211 15.0088 66.4717 15.2777 65.9601 15.8156C65.4484 16.3404 65.1926 17.0488 65.1926 17.9409C65.1926 18.833 65.4484 19.548 65.9601 20.0858C66.4717 20.6106 67.1211 20.873 67.9082 20.873ZM82.1411 22.7227C81.8394 22.9458 81.4655 23.1163 81.0194 23.2344C80.5865 23.3393 80.1339 23.3918 79.6616 23.3918C78.3891 23.3918 77.4117 23.0704 76.7295 22.4276C76.0474 21.7847 75.7063 20.8402 75.7063 19.5939V10.3057H78.7761V12.8835H81.3933V15.2449H78.7761V19.5545C78.7761 20.0006 78.8876 20.3482 79.1106 20.5975C79.3337 20.8336 79.6551 20.9517 80.0749 20.9517C80.5472 20.9517 80.967 20.8205 81.3343 20.5581L82.1411 22.7227ZM83.875 12.6474H86.9448V23.2344H83.875V12.6474ZM85.4099 11.1715C84.8458 11.1715 84.3866 11.0075 84.0324 10.6796C83.6782 10.3516 83.5011 9.9449 83.5011 9.4595C83.5011 8.9741 83.6782 8.56741 84.0324 8.23944C84.3866 7.91146 84.8458 7.74748 85.4099 7.74748C85.974 7.74748 86.4331 7.9049 86.7874 8.21976C87.1416 8.53461 87.3187 8.92818 87.3187 9.40046C87.3187 9.9121 87.1416 10.3385 86.7874 10.6796C86.4331 11.0075 85.974 11.1715 85.4099 11.1715ZM92.785 12.8835H95.5006V15.2449H92.8637V23.2344H89.7938V12.4113C89.7938 11.2043 90.1481 10.2466 90.8565 9.53821C91.578 8.82979 92.5882 8.47558 93.887 8.47558C94.3461 8.47558 94.779 8.52805 95.1857 8.633C95.6055 8.72484 95.9532 8.86259 96.2287 9.04625L95.4219 11.2699C95.0677 11.0206 94.6544 10.896 94.1821 10.896C93.2507 10.896 92.785 11.4077 92.785 12.4309V12.8835ZM107.704 12.6474V21.4633C107.704 23.4049 107.212 24.848 106.229 25.7926C105.245 26.7371 103.815 27.2094 101.939 27.2094C100.942 27.2094 99.997 27.0848 99.105 26.8355C98.226 26.5863 97.4848 26.2255 96.8813 25.7532L98.1014 23.5492C98.5474 23.9166 99.0918 24.2052 99.7347 24.4151C100.377 24.625 101.027 24.7299 101.683 24.7299C102.706 24.7299 103.454 24.4938 103.926 24.0215C104.398 23.5492 104.635 22.8277 104.635 21.8569V21.5027C104.241 21.8962 103.775 22.198 103.237 22.4079C102.7 22.6178 102.122 22.7227 101.506 22.7227C100.115 22.7227 99.0131 22.3292 98.1998 21.542C97.3864 20.7418 96.9797 19.548 96.9797 17.9606V12.6474H100.05V17.508C100.05 19.2265 100.765 20.0858 102.194 20.0858C102.929 20.0858 103.519 19.8497 103.966 19.3774C104.412 18.892 104.635 18.177 104.635 17.2325V12.6474H107.704Z" fill="black"/>
</svg>
