<svg width="105" height="28" viewBox="0 0 105 28" fill="none" xmlns="http://www.w3.org/2000/svg">
<rect width="105" height="28" rx="6" fill="#F19E38"/>
<path d="M36.5264 10.636V11.524H34.2464V19H33.1544V11.524H30.8624V10.636H36.5264ZM42.4546 12.304C42.9506 12.304 43.3986 12.412 43.7986 12.628C44.1986 12.836 44.5106 13.152 44.7346 13.576C44.9666 14 45.0826 14.516 45.0826 15.124V19H44.0026V15.28C44.0026 14.624 43.8386 14.124 43.5106 13.78C43.1826 13.428 42.7346 13.252 42.1666 13.252C41.5906 13.252 41.1306 13.432 40.7866 13.792C40.4506 14.152 40.2826 14.676 40.2826 15.364V19H39.1906V10.12H40.2826V13.36C40.4986 13.024 40.7946 12.764 41.1706 12.58C41.5546 12.396 41.9826 12.304 42.4546 12.304ZM54.1863 15.46C54.1863 15.668 54.1743 15.888 54.1503 16.12H48.8943C48.9343 16.768 49.1543 17.276 49.5543 17.644C49.9623 18.004 50.4543 18.184 51.0303 18.184C51.5023 18.184 51.8943 18.076 52.2063 17.86C52.5263 17.636 52.7503 17.34 52.8783 16.972H54.0543C53.8783 17.604 53.5263 18.12 52.9983 18.52C52.4703 18.912 51.8143 19.108 51.0303 19.108C50.4063 19.108 49.8463 18.968 49.3503 18.688C48.8623 18.408 48.4783 18.012 48.1983 17.5C47.9183 16.98 47.7783 16.38 47.7783 15.7C47.7783 15.02 47.9143 14.424 48.1863 13.912C48.4583 13.4 48.8383 13.008 49.3263 12.736C49.8223 12.456 50.3903 12.316 51.0303 12.316C51.6543 12.316 52.2063 12.452 52.6863 12.724C53.1663 12.996 53.5343 13.372 53.7903 13.852C54.0543 14.324 54.1863 14.86 54.1863 15.46ZM53.0583 15.232C53.0583 14.816 52.9663 14.46 52.7823 14.164C52.5983 13.86 52.3463 13.632 52.0263 13.48C51.7143 13.32 51.3663 13.24 50.9823 13.24C50.4303 13.24 49.9583 13.416 49.5663 13.768C49.1823 14.12 48.9623 14.608 48.9063 15.232H53.0583ZM67.911 10.636V19H66.819V15.208H62.559V19H61.467V10.636H62.559V14.308H66.819V10.636H67.911ZM71.6596 11.356C71.4516 11.356 71.2756 11.284 71.1316 11.14C70.9876 10.996 70.9156 10.82 70.9156 10.612C70.9156 10.404 70.9876 10.228 71.1316 10.084C71.2756 9.94 71.4516 9.868 71.6596 9.868C71.8596 9.868 72.0276 9.94 72.1636 10.084C72.3076 10.228 72.3796 10.404 72.3796 10.612C72.3796 10.82 72.3076 10.996 72.1636 11.14C72.0276 11.284 71.8596 11.356 71.6596 11.356ZM72.1876 12.424V19H71.0956V12.424H72.1876ZM78.5727 12.304C79.3727 12.304 80.0207 12.548 80.5167 13.036C81.0127 13.516 81.2607 14.212 81.2607 15.124V19H80.1807V15.28C80.1807 14.624 80.0167 14.124 79.6887 13.78C79.3607 13.428 78.9127 13.252 78.3447 13.252C77.7687 13.252 77.3087 13.432 76.9647 13.792C76.6287 14.152 76.4607 14.676 76.4607 15.364V19H75.3687V12.424H76.4607V13.36C76.6767 13.024 76.9687 12.764 77.3367 12.58C77.7127 12.396 78.1247 12.304 78.5727 12.304ZM83.9565 15.688C83.9565 15.016 84.0925 14.428 84.3645 13.924C84.6365 13.412 85.0085 13.016 85.4805 12.736C85.9605 12.456 86.4965 12.316 87.0885 12.316C87.6005 12.316 88.0765 12.436 88.5165 12.676C88.9565 12.908 89.2925 13.216 89.5245 13.6V10.12H90.6285V19H89.5245V17.764C89.3085 18.156 88.9885 18.48 88.5645 18.736C88.1405 18.984 87.6445 19.108 87.0765 19.108C86.4925 19.108 85.9605 18.964 85.4805 18.676C85.0085 18.388 84.6365 17.984 84.3645 17.464C84.0925 16.944 83.9565 16.352 83.9565 15.688ZM89.5245 15.7C89.5245 15.204 89.4245 14.772 89.2245 14.404C89.0245 14.036 88.7525 13.756 88.4085 13.564C88.0725 13.364 87.7005 13.264 87.2925 13.264C86.8845 13.264 86.5125 13.36 86.1765 13.552C85.8405 13.744 85.5725 14.024 85.3725 14.392C85.1725 14.76 85.0725 15.192 85.0725 15.688C85.0725 16.192 85.1725 16.632 85.3725 17.008C85.5725 17.376 85.8405 17.66 86.1765 17.86C86.5125 18.052 86.8845 18.148 87.2925 18.148C87.7005 18.148 88.0725 18.052 88.4085 17.86C88.7525 17.66 89.0245 17.376 89.2245 17.008C89.4245 16.632 89.5245 16.196 89.5245 15.7ZM99.6258 12.424V19H98.5338V18.028C98.3258 18.364 98.0338 18.628 97.6578 18.82C97.2898 19.004 96.8818 19.096 96.4338 19.096C95.9218 19.096 95.4618 18.992 95.0538 18.784C94.6458 18.568 94.3218 18.248 94.0818 17.824C93.8498 17.4 93.7338 16.884 93.7338 16.276V12.424H94.8138V16.132C94.8138 16.78 94.9778 17.28 95.3058 17.632C95.6338 17.976 96.0818 18.148 96.6498 18.148C97.2338 18.148 97.6938 17.968 98.0298 17.608C98.3658 17.248 98.5338 16.724 98.5338 16.036V12.424H99.6258Z" fill="black"/>
<g clip-path="url(#clip0_328_580)">
<path d="M17.5 25C23.299 25 28 20.299 28 14.5C28 8.70101 23.299 4 17.5 4C11.701 4 7 8.70101 7 14.5C7 20.299 11.701 25 17.5 25Z" fill="black"/>
<path d="M16.2856 13.1785C16.0714 12.1071 15.7142 11.2856 14.3571 11.2856H14.1071C14.0714 11.9285 14.0714 12.7142 14.0714 13.2856V16.8928C14.0714 17.6428 14.3928 17.8214 15.2499 17.8928V17.9999C15.2499 17.9999 13.8571 17.9642 13.4642 17.9642C13.0714 17.9642 11.6785 17.9999 11.6785 17.9999V17.8928C12.5714 17.8214 12.8214 17.6428 12.8214 16.8928V13.2856C12.8214 12.7142 12.8214 11.9999 12.7856 11.2856H12.5714C11.0356 11.2856 10.8571 12.0356 10.6071 13.1785H10.5356C10.5356 12.8928 10.5356 12.1428 10.5356 11.8214C10.5356 11.5356 10.5356 11.2499 10.5356 11.0356C10.9642 11.0714 11.3928 11.1071 11.6071 11.1071C11.8928 11.1071 12.5356 11.1428 12.9285 11.1428H13.9642C14.3214 11.1428 14.9999 11.1071 15.2856 11.1071C15.4999 11.1071 15.8928 11.1071 16.3571 11.0356C16.3214 11.2856 16.3214 11.5714 16.3214 11.8214C16.3214 12.1785 16.3214 12.9285 16.3571 13.1785H16.2856Z" fill="white"/>
<path d="M24.4643 17.9999C23.8929 17.9642 23.3571 17.9642 22.7857 17.9642C22.25 17.9642 21.6786 17.9642 21.1429 17.9999V17.8928C21.8929 17.8214 22.1429 17.7499 22.1429 16.8928V14.6071C21.6071 14.5714 21.0714 14.5714 20.5357 14.5714C20.0357 14.5714 19.5357 14.6071 19 14.6071V16.8928C19 17.7499 19.2857 17.8571 20.0357 17.8928V17.9999C19.4643 17.9642 18.9286 17.9642 18.3929 17.9642C17.8214 17.9642 17.2857 17.9642 16.75 17.9999V17.8928C17.5 17.8214 17.7857 17.7499 17.7857 16.8928V12.1785C17.7857 11.3214 17.5357 11.2142 16.75 11.1785V11.0356C17.3214 11.0714 17.8571 11.0714 18.3929 11.0714C18.9286 11.0714 19.5 11.0356 20.0357 11.0356V11.1785C19.2857 11.2142 19 11.3214 19 12.1785V14.1428H20.3571C20.9643 14.1428 21.5357 14.1428 22.1429 14.1428V12.1785C22.1429 11.3214 21.8929 11.2142 21.1429 11.1785V11.0356C21.6786 11.0714 22.25 11.0714 22.7857 11.0714C23.3571 11.0714 23.8929 11.0356 24.4643 11.0356V11.1785C23.7143 11.2142 23.4286 11.3214 23.4286 12.1785V16.8571C23.4286 17.7142 23.7143 17.8214 24.4643 17.8571V17.9999Z" fill="white"/>
</g>
<defs>
<clipPath id="clip0_328_580">
<rect width="21" height="21" fill="white" transform="translate(7 4)"/>
</clipPath>
</defs>
</svg>
