<svg version="1.2" xmlns="http://www.w3.org/2000/svg" viewBox="0 0 1707 1108" width="1707" height="1108"><style>.a{fill:#fdf3e2}.b{fill:#f19e38}</style><path class="a" d="m0 247h1707v1062.2h-1707z"/><path class="b" d="m1974.7 950.9c0 166.6-179.6 301.6-401.1 301.6-221.5 0-401.1-135-401.1-301.6 0-166.5 179.6-301.5 401.1-301.5 221.5 0 401.1 135 401.1 301.5z"/><path class="b" d="m166.3 407c0 17.9-14.6 32.5-32.5 32.5-18 0-32.5-14.6-32.5-32.5 0-18 14.5-32.5 32.5-32.5 17.9 0 32.5 14.5 32.5 32.5z"/><path class="b" d="m413.1 623.7c0 24.8-20.1 45-45 45-24.8 0-45-20.2-45-45 0-24.9 20.2-45 45-45 24.9 0 45 20.1 45 45z"/><path class="b" d="m434.6 501.8c0.1-0.6 0.8-0.6 0.9 0l0.5 4.8c0.7 6.3 5.2 11.2 10.9 12l4.5 0.5c0.5 0.1 0.5 0.9 0 1l-4.5 0.6c-5.7 0.7-10.2 5.6-10.9 11.9l-0.5 4.8c-0.1 0.6-0.8 0.6-0.9 0l-0.5-4.8c-0.7-6.3-5.2-11.2-10.9-11.9l-4.5-0.6c-0.5-0.1-0.5-0.9 0-1l4.5-0.5c5.7-0.8 10.2-5.7 10.9-12z"/><path class="a" d="m259 18c-135 0-190.6 33.8-258.6 78.2l0.6 155.5h1706v-213c-20.1 25.8-83.3 64.5-168 74.9-106 12.9-209.1-93.1-422.5-93.1-216.6 0-262.2 51.6-413.1 93.1-150.9 41.3-279.2-95.6-444.4-95.6z"/></svg>