<svg width="35" height="34" viewBox="0 0 35 34" fill="none" xmlns="http://www.w3.org/2000/svg">
<path d="M3.6329 0C1.92517 0 0.541992 1.38319 0.541992 3.09092V30.9092C0.541992 32.6169 1.92517 34.0001 3.6329 34.0001H31.4511C33.1588 34.0001 34.542 32.6169 34.542 30.9092V3.09092C34.542 1.38319 33.1588 0 31.4511 0H3.6329ZM7.72594 7.7273H14.8525L19.012 13.6737L24.1585 7.7273H26.4012L20.0202 15.1165L27.8259 26.2728H20.6993L16.0841 19.6744L10.3852 26.2728H8.10627L15.0699 18.2286L7.72594 7.7273ZM11.173 9.5565L21.6109 24.4346H24.3758L13.9349 9.5565H11.173Z" fill="black"/>
</svg>
