<svg width="43" height="34" viewBox="0 0 43 34" fill="none" xmlns="http://www.w3.org/2000/svg">
<path d="M41.2052 4.64525C40.7222 2.81775 39.2984 1.377 37.4924 0.88825C34.2164 4.47035e-07 21.083 0 21.083 0C21.083 0 7.94961 4.47035e-07 4.67361 0.88825C2.86761 1.377 1.44381 2.81775 0.960808 4.64525C0.0830078 7.96025 0.0830078 17 0.0830078 17C0.0830078 17 0.0830078 26.0397 0.960808 29.3547C1.44381 31.1822 2.86761 32.623 4.67361 33.1118C7.94961 34 21.083 34 21.083 34C21.083 34 34.2164 34 37.4924 33.1118C39.3005 32.623 40.7222 31.1822 41.2052 29.3547C42.083 26.0397 42.083 17 42.083 17C42.083 17 42.083 7.96025 41.2052 4.64525ZM16.883 22.5207V11.4793C16.883 10.6611 17.7587 10.1511 18.458 10.5591L27.908 16.0799C28.6073 16.4879 28.6073 17.5121 27.908 17.9201L18.458 23.4409C17.7587 23.851 16.883 23.3389 16.883 22.5207Z" fill="black"/>
</svg>
